<svg width="19" height="24" viewBox="0 0 19 24" fill="none" xmlns="http://www.w3.org/2000/svg">
<path fill-rule="evenodd" clip-rule="evenodd" d="M15.6359 12.3537C15.6216 10.173 16.7307 8.35534 18.202 7.98522C16.9682 6.49325 15.084 5.90583 13.3429 5.9172C12.7452 5.92117 12.172 6.08741 11.6388 6.39018C10.4601 7.05942 9.03734 7.06876 7.84996 6.41506C7.31285 6.11937 6.73745 5.96064 6.13974 5.9645C3.24256 5.98359 -0.0307466 7.66464 0.000248962 12.3726C0.0311373 17.0807 3.35442 23.0327 6.25171 23.0136C6.91774 23.0093 7.55352 22.8033 8.13729 22.4314C9.18138 21.7665 10.509 21.7577 11.5618 22.409C12.1504 22.773 12.7888 22.9707 13.4549 22.9664C15.4593 22.9532 17.63 20.0792 18.7673 16.7502C17.0509 16.7376 15.6517 14.7787 15.6359 12.3537Z" fill="#686868"/>
<mask id="mask0" mask-type="alpha" maskUnits="userSpaceOnUse" x="9" y="0" width="5" height="6">
<path fill-rule="evenodd" clip-rule="evenodd" d="M9.29123 0.107254H13.7368V5.56096H9.29123V0.107254Z" fill="white"/>
</mask>
<g mask="url(#mask0)">
<path fill-rule="evenodd" clip-rule="evenodd" d="M12.7958 3.86328C11.5867 5.3693 9.32464 5.56096 9.32464 5.56096C9.32464 5.56096 9.02305 3.31105 10.2322 1.80503C11.4413 0.299004 13.7034 0.107239 13.7034 0.107239C13.7034 0.107239 14.005 2.35726 12.7958 3.86328Z" fill="#686868"/>
</g>
</svg>
