<svg width="590" height="368" viewBox="0 0 590 368" fill="none" xmlns="http://www.w3.org/2000/svg">
<mask id="mask0" mask-type="alpha" maskUnits="userSpaceOnUse" x="28" y="0" width="562" height="348">
<path fill-rule="evenodd" clip-rule="evenodd" d="M28 0H590V348H28V0Z" fill="white"/>
</mask>
<g mask="url(#mask0)">
<path fill-rule="evenodd" clip-rule="evenodd" d="M555.775 348C555.775 348 613.574 310.359 578.948 275.156C544.323 239.953 533.963 244.313 543.932 205.076C553.9 165.839 594.272 151.243 578.22 121.467C558.951 85.7275 515.024 118.332 487.72 130.848C436.958 154.115 437.262 119.332 456.757 86.7934C476.252 54.2538 477.651 0 432.629 0C383.661 0 276.046 105.854 216.761 179.012C181.279 222.796 155.418 192.33 159.011 164.201C161.295 146.322 166.046 117.423 154.927 104.126C135.628 81.0466 78.937 153.355 58.9207 184.248C-19.4186 305.158 75.808 348 75.808 348H555.775Z" fill="url(#paint0_linear)"/>
<path fill-rule="evenodd" clip-rule="evenodd" d="M118.808 53.1167C121.015 48.0499 121.723 44.1657 120.155 40.9648C115.509 31.474 91.8262 29.9534 76.6573 39.1869C55.5046 52.0642 49.9113 86.461 59.5942 94.0984C70.8606 102.985 107.417 79.2759 118.808 53.1167Z" fill="#F8F3F0"/>
</g>
<path fill-rule="evenodd" clip-rule="evenodd" d="M269 358H447V357H269V358Z" fill="#DCD6D3"/>
<path fill-rule="evenodd" clip-rule="evenodd" d="M404 368H482V367H404V368Z" fill="#DCD6D3"/>
<path fill-rule="evenodd" clip-rule="evenodd" d="M238 368H380V367H238V368Z" fill="#DCD6D3"/>
<path fill-rule="evenodd" clip-rule="evenodd" d="M131 368H152V367H131V368Z" fill="#DCD6D3"/>
<path fill-rule="evenodd" clip-rule="evenodd" d="M159 368H165V367H159V368Z" fill="#DCD6D3"/>
<path fill-rule="evenodd" clip-rule="evenodd" d="M469 359H505V358H469V359Z" fill="#DCD6D3"/>
<path fill-rule="evenodd" clip-rule="evenodd" d="M199 358H254V357H199V358Z" fill="#DCD6D3"/>
<path fill-rule="evenodd" clip-rule="evenodd" d="M92 358H188V357H92V358Z" fill="#DCD6D3"/>
<path fill-rule="evenodd" clip-rule="evenodd" d="M63 358H80V357H63V358Z" fill="#DCD6D3"/>
<path fill-rule="evenodd" clip-rule="evenodd" d="M192 348H422V52H192V348Z" fill="#F6F3F1"/>
<path fill-rule="evenodd" clip-rule="evenodd" d="M422 237V348H192V272.703L422 237Z" fill="#F6F3F1"/>
<path fill-rule="evenodd" clip-rule="evenodd" d="M205 336H410V335H205V336Z" fill="#F8F7FF"/>
<path fill-rule="evenodd" clip-rule="evenodd" d="M23 349H575V348H23V349Z" fill="#DCD6D3"/>
<path fill-rule="evenodd" clip-rule="evenodd" d="M69 349H127V348H69V349Z" fill="#AFA5A2"/>
<path fill-rule="evenodd" clip-rule="evenodd" d="M327 349H333V348H327V349Z" fill="#AFA5A2"/>
<path fill-rule="evenodd" clip-rule="evenodd" d="M141 349H320V348H141V349Z" fill="#AFA5A2"/>
<path fill-rule="evenodd" clip-rule="evenodd" d="M351 349H437V348H351V349Z" fill="#AFA5A2"/>
<path fill-rule="evenodd" clip-rule="evenodd" d="M55 349H60V348H55V349Z" fill="#AFA5A2"/>
<path fill-rule="evenodd" clip-rule="evenodd" d="M520 349H532V348H520V349Z" fill="#AFA5A2"/>
<path fill-rule="evenodd" clip-rule="evenodd" d="M421 339H422V310H421V339Z" fill="#AFA5A2"/>
<path fill-rule="evenodd" clip-rule="evenodd" d="M421 296H422V174H421V296Z" fill="#AFA5A2"/>
<path fill-rule="evenodd" clip-rule="evenodd" d="M192 295H193V258H192V295Z" fill="#AFA5A2"/>
<path fill-rule="evenodd" clip-rule="evenodd" d="M192 252H193V249H192V252Z" fill="#AFA5A2"/>
<path fill-rule="evenodd" clip-rule="evenodd" d="M192 246H193V216H192V246Z" fill="#AFA5A2"/>
<path fill-rule="evenodd" clip-rule="evenodd" d="M423 100H421.772V52.2513H404V51H423V100Z" fill="#AFA5A2"/>
<path fill-rule="evenodd" clip-rule="evenodd" d="M389 52H398V51H389V52Z" fill="#AFA5A2"/>
<path fill-rule="evenodd" clip-rule="evenodd" d="M313 44.5C313 47.5375 310.538 50 307.5 50C304.462 50 302 47.5375 302 44.5C302 41.4625 304.462 39 307.5 39C310.538 39 313 41.4625 313 44.5Z" fill="white"/>
<path fill-rule="evenodd" clip-rule="evenodd" d="M205 335H410V64H205V335Z" fill="white"/>
<path fill-rule="evenodd" clip-rule="evenodd" d="M316 128H335V127H316V128Z" fill="#DCD6D3"/>
<path fill-rule="evenodd" clip-rule="evenodd" d="M252 128H309V127H252V128Z" fill="#DCD6D3"/>
<path fill-rule="evenodd" clip-rule="evenodd" d="M290 137H335V136H290V137Z" fill="#DCD6D3"/>
<path fill-rule="evenodd" clip-rule="evenodd" d="M285 137H288V136H285V137Z" fill="#DCD6D3"/>
<path fill-rule="evenodd" clip-rule="evenodd" d="M227 137H278V136H227V137Z" fill="#DCD6D3"/>
<path fill-rule="evenodd" clip-rule="evenodd" d="M227 147H301V146H227V147Z" fill="#DCD6D3"/>
<path fill-rule="evenodd" clip-rule="evenodd" d="M252 176H335V175H252V176Z" fill="#DCD6D3"/>
<path fill-rule="evenodd" clip-rule="evenodd" d="M227 176H246V175H227V176Z" fill="#DCD6D3"/>
<path fill-rule="evenodd" clip-rule="evenodd" d="M227 185H327V184H227V185Z" fill="#DCD6D3"/>
<path fill-rule="evenodd" clip-rule="evenodd" d="M263 195H265V194H263V195Z" fill="#DCD6D3"/>
<path fill-rule="evenodd" clip-rule="evenodd" d="M227 195H260V194H227V195Z" fill="#DCD6D3"/>
<path fill-rule="evenodd" clip-rule="evenodd" d="M227 224H336V223H227V224Z" fill="#DCD6D3"/>
<path fill-rule="evenodd" clip-rule="evenodd" d="M301 233H335V232H301V233Z" fill="#DCD6D3"/>
<path fill-rule="evenodd" clip-rule="evenodd" d="M227 233H294V232H227V233Z" fill="#DCD6D3"/>
<path fill-rule="evenodd" clip-rule="evenodd" d="M227 243H320V242H227V243Z" fill="#DCD6D3"/>
<path fill-rule="evenodd" clip-rule="evenodd" d="M359 146H355V139L359 146Z" fill="white"/>
<path fill-rule="evenodd" clip-rule="evenodd" d="M359 147H354V140H355.344V145.805H359V147Z" fill="#DCD6D3"/>
<path fill-rule="evenodd" clip-rule="evenodd" d="M381 147H362V145.769H379.724V127H381V147Z" fill="#DCD6D3"/>
<path fill-rule="evenodd" clip-rule="evenodd" d="M370 122H372V121H370V122Z" fill="#DCD6D3"/>
<path fill-rule="evenodd" clip-rule="evenodd" d="M355 124V121H368L355 124Z" fill="white"/>
<path fill-rule="evenodd" clip-rule="evenodd" d="M355.291 124H354V121H368V122.088H355.291V124Z" fill="#DCD6D3"/>
<path fill-rule="evenodd" clip-rule="evenodd" d="M366 195H354V192H355.276V193.892H366V195Z" fill="#DCD6D3"/>
<path fill-rule="evenodd" clip-rule="evenodd" d="M380 194H368V192.786H378.768V179H380V194Z" fill="#DCD6D3"/>
<path fill-rule="evenodd" clip-rule="evenodd" d="M379 176H380V174H379V176Z" fill="#DCD6D3"/>
<path fill-rule="evenodd" clip-rule="evenodd" d="M355.249 189H354V168H372V169.281H355.249V189Z" fill="#DCD6D3"/>
<path fill-rule="evenodd" clip-rule="evenodd" d="M380 243H354V231H355.238V241.761H378.762V237.452H380V243Z" fill="#DCD6D3"/>
<path fill-rule="evenodd" clip-rule="evenodd" d="M379 237H380V235H379V237Z" fill="#DCD6D3"/>
<path fill-rule="evenodd" clip-rule="evenodd" d="M379 232H380V224H379V232Z" fill="#DCD6D3"/>
<path fill-rule="evenodd" clip-rule="evenodd" d="M379 225H380V223H379V225Z" fill="#DCD6D3"/>
<path fill-rule="evenodd" clip-rule="evenodd" d="M369 217H371V216H369V217Z" fill="#DCD6D3"/>
<path fill-rule="evenodd" clip-rule="evenodd" d="M355.293 221H354V216H367V217.25H355.293V221Z" fill="#DCD6D3"/>
<path fill-rule="evenodd" clip-rule="evenodd" d="M354 283H355V281H354V283Z" fill="#DCD6D3"/>
<path fill-rule="evenodd" clip-rule="evenodd" d="M380 291H354V286H355.238V289.709H378.762V286.513H380V291Z" fill="#DCD6D3"/>
<path fill-rule="evenodd" clip-rule="evenodd" d="M379 283H380V269H379V283Z" fill="#DCD6D3"/>
<path fill-rule="evenodd" clip-rule="evenodd" d="M227 272H327V271H227V272Z" fill="#DCD6D3"/>
<path fill-rule="evenodd" clip-rule="evenodd" d="M256 281H335V280H256V281Z" fill="#DCD6D3"/>
<path fill-rule="evenodd" clip-rule="evenodd" d="M249 281H251V280H249V281Z" fill="#DCD6D3"/>
<path fill-rule="evenodd" clip-rule="evenodd" d="M227 281H242V280H227V281Z" fill="#DCD6D3"/>
<path fill-rule="evenodd" clip-rule="evenodd" d="M227 290H266V289H227V290Z" fill="#DCD6D3"/>
<path fill-rule="evenodd" clip-rule="evenodd" d="M355.281 274H354V264H370V265.289H355.281V274Z" fill="#DCD6D3"/>
<path fill-rule="evenodd" clip-rule="evenodd" d="M363.654 143L349 131.102L353.01 126.321L362.714 134.201L383.068 109L388 112.857L363.654 143Z" fill="#FBD12A"/>
<path fill-rule="evenodd" clip-rule="evenodd" d="M363.654 191L349 179.103L353.01 174.321L362.714 182.201L383.069 157L388 160.858L363.654 191Z" fill="#FBD12A"/>
<path fill-rule="evenodd" clip-rule="evenodd" d="M363.654 239L349 227.102L353.01 222.321L362.714 230.201L383.069 205L388 208.858L363.654 239Z" fill="#FBD12A"/>
<path fill-rule="evenodd" clip-rule="evenodd" d="M363.654 287L349 275.103L353.01 270.322L362.714 278.201L383.068 253L388 256.857L363.654 287Z" fill="#FBD12A"/>
<path fill-rule="evenodd" clip-rule="evenodd" d="M5.5 195.222C3.14172 195.222 1.22222 197.142 1.22222 199.5C1.22222 201.858 3.14172 203.778 5.5 203.778C7.85889 203.778 9.77778 201.858 9.77778 199.5C9.77778 197.142 7.85889 195.222 5.5 195.222ZM5.5 205C2.46767 205 0 202.533 0 199.5C0 196.467 2.46767 194 5.5 194C8.53294 194 11 196.467 11 199.5C11 202.533 8.53294 205 5.5 205Z" fill="#FFC692"/>
<path fill-rule="evenodd" clip-rule="evenodd" d="M509 59H510V54H509V59Z" fill="#FFC692"/>
<path fill-rule="evenodd" clip-rule="evenodd" d="M509 91H510V86H509V91Z" fill="#FFC692"/>
<path fill-rule="evenodd" clip-rule="evenodd" d="M501.849 61L499 56.5936L500.151 56L503 60.4064L501.849 61Z" fill="#FFC692"/>
<path fill-rule="evenodd" clip-rule="evenodd" d="M518.849 89L516 84.5935L517.151 84L520 88.4065L518.849 89Z" fill="#FFC692"/>
<path fill-rule="evenodd" clip-rule="evenodd" d="M497.406 67L493 64.1517L493.594 63L498 65.849L497.406 67Z" fill="#FFC692"/>
<path fill-rule="evenodd" clip-rule="evenodd" d="M525.406 83L521 80.1519L521.594 79L526 81.8488L525.406 83Z" fill="#FFC692"/>
<path fill-rule="evenodd" clip-rule="evenodd" d="M491 73H496V72H491V73Z" fill="#FFC692"/>
<path fill-rule="evenodd" clip-rule="evenodd" d="M523 73H528V72H523V73Z" fill="#FFC692"/>
<path fill-rule="evenodd" clip-rule="evenodd" d="M493.594 83L493 81.8488L497.406 79L498 80.1519L493.594 83Z" fill="#FFC692"/>
<path fill-rule="evenodd" clip-rule="evenodd" d="M521.594 67L521 65.849L525.406 63L526 64.1517L521.594 67Z" fill="#FFC692"/>
<path fill-rule="evenodd" clip-rule="evenodd" d="M500.151 89L499 88.4065L501.849 84L503 84.5935L500.151 89Z" fill="#FFC692"/>
<path fill-rule="evenodd" clip-rule="evenodd" d="M517.151 61L516 60.4064L518.849 56L520 56.5936L517.151 61Z" fill="#FFC692"/>
<path fill-rule="evenodd" clip-rule="evenodd" d="M222.528 16.5C225.282 17.526 227.474 19.718 228.5 22.4723C229.526 19.718 231.718 17.526 234.472 16.5C231.718 15.474 229.526 13.282 228.5 10.5277C227.474 13.282 225.282 15.474 222.528 16.5ZM229.133 26H227.867C227.867 21.1107 223.889 17.1333 219 17.1333V15.8667C223.889 15.8667 227.867 11.8893 227.867 7H229.133C229.133 11.8893 233.111 15.8667 238 15.8667V17.1333C233.111 17.1333 229.133 21.1107 229.133 26Z" fill="#FFC692"/>
<path fill-rule="evenodd" clip-rule="evenodd" d="M443 195.745L438.575 195L433 217.743L440.461 219L443 195.745Z" fill="#C65D00"/>
<path fill-rule="evenodd" clip-rule="evenodd" d="M408 204.67L512.543 231L514 225.329L409.457 199L408 204.67Z" fill="#FF9D45"/>
<path fill-rule="evenodd" clip-rule="evenodd" d="M409 198.67L513.543 225L515 219.33L410.457 193L409 198.67Z" fill="#FFC359"/>
<path fill-rule="evenodd" clip-rule="evenodd" d="M411 193.67L515.543 220L517 214.329L412.457 188L411 193.67Z" fill="#FFC359"/>
<path fill-rule="evenodd" clip-rule="evenodd" d="M521 232.856L529.617 235L534 218.144L525.383 216L521 232.856Z" fill="#FF809F"/>
<path fill-rule="evenodd" clip-rule="evenodd" d="M512 230.856L520.617 233L525 216.144L516.384 214L512 230.856Z" fill="#EEEBFF"/>
<path fill-rule="evenodd" clip-rule="evenodd" d="M383 189.769L412 188L407.619 205L383 189.769Z" fill="#EEEBFF"/>
<path fill-rule="evenodd" clip-rule="evenodd" d="M392 195.03L407.573 205L409 199.26L392.506 193L392 195.03Z" fill="#DDD6FF"/>
<path fill-rule="evenodd" clip-rule="evenodd" d="M383 189L391.496 194L392 192.14L383 189Z" fill="#FF9D45"/>
<path fill-rule="evenodd" clip-rule="evenodd" d="M383 189.625L391.993 193L393 189L383 189.625Z" fill="#FBD12A"/>
<path fill-rule="evenodd" clip-rule="evenodd" d="M513.45 226L522 228.209L520.55 234L512 231.791L513.45 226Z" fill="#DDD6FF"/>
<path fill-rule="evenodd" clip-rule="evenodd" d="M522.45 228L531 230.209L529.55 236L521 233.791L522.45 228Z" fill="#E5659B"/>
<path fill-rule="evenodd" clip-rule="evenodd" d="M512.844 229L517 214.194L516.156 214L512 228.805L512.844 229Z" fill="white"/>
<path fill-rule="evenodd" clip-rule="evenodd" d="M522.649 228L523 226.213L522.351 226L522 227.787L522.649 228Z" fill="white"/>
<path fill-rule="evenodd" clip-rule="evenodd" d="M523.81 225L525 220.211L524.19 220L523 224.789L523.81 225Z" fill="white"/>
<path fill-rule="evenodd" clip-rule="evenodd" d="M409.832 199L413 187.201L412.168 187L409 198.799L409.832 199Z" fill="white"/>
<path fill-rule="evenodd" clip-rule="evenodd" d="M485.484 237.991C484.249 236.324 483.015 234.697 482.97 232.253C482.858 226.227 485.542 225.945 485.188 219.925C484.835 213.904 480.366 214.224 480.013 208.203C479.967 207.426 480.026 206.741 480.162 206.131C480.617 205.331 481 204.488 481.305 203.61C481.361 203.457 481.411 203.3 481.458 203.147C481.948 201.591 482.195 199.932 482.163 198.216C482.004 189.657 474.928 182.844 466.362 183.003C457.791 183.162 450.974 190.232 451.133 198.791C451.164 200.507 451.473 202.156 452.02 203.693C452.072 203.844 452.128 203.991 452.185 204.141L452.189 204.146C452.528 205.016 452.946 205.848 453.431 206.635C453.585 207.241 453.669 207.919 453.652 208.692C453.523 214.722 449.05 214.568 448.92 220.597C448.79 226.627 451.483 226.81 451.595 232.834C451.64 235.28 450.468 236.951 449.291 238.663C448.124 240.379 446.953 242.135 447.001 244.737C447.14 252.201 453.305 258.137 460.775 257.998L474.731 257.739C482.201 257.6 488.137 251.44 487.998 243.976C487.95 241.375 486.714 239.663 485.484 237.991Z" fill="#49311B"/>
<path fill-rule="evenodd" clip-rule="evenodd" d="M453.02 250.4C452.689 255.359 456.44 259.648 461.4 259.98C466.359 260.311 470.648 256.56 470.98 251.6C471.311 246.641 467.56 242.352 462.6 242.02C457.641 241.689 453.352 245.44 453.02 250.4Z" fill="#FFC7BD"/>
<path fill-rule="evenodd" clip-rule="evenodd" d="M453.011 220.667C452.827 223.422 454.911 225.804 457.666 225.989C460.422 226.173 462.805 224.089 462.989 221.334C463.173 218.578 461.088 216.196 458.334 216.011C455.579 215.828 453.196 217.911 453.011 220.667Z" fill="#FF95A9"/>
<path fill-rule="evenodd" clip-rule="evenodd" d="M437.317 215.098C435.438 214.646 433.548 215.804 433.098 217.683C432.646 219.562 433.804 221.451 435.683 221.902C437.562 222.354 439.452 221.196 439.902 219.317C440.354 217.438 439.196 215.549 437.317 215.098Z" fill="#C65D00"/>
<path fill-rule="evenodd" clip-rule="evenodd" d="M459 216.243L436.938 215L436 222.09L457.71 226L459 216.243Z" fill="#C65D00"/>
<path fill-rule="evenodd" clip-rule="evenodd" d="M485 345.5C485 346.881 486.119 348 487.5 348C488.88 348 490 346.881 490 345.5C490 344.119 488.88 343 487.5 343C486.119 343 485 344.119 485 345.5Z" fill="#FF95A9"/>
<path fill-rule="evenodd" clip-rule="evenodd" d="M461 345.5C461 346.881 459.881 348 458.501 348C457.119 348 456 346.881 456 345.5C456 344.119 457.119 343 458.501 343C459.881 343 461 344.119 461 345.5Z" fill="#8B77E8"/>
<path fill-rule="evenodd" clip-rule="evenodd" d="M452.588 221.029L452 249.775L470.283 251L479.845 221.411C480.477 219.454 479.104 217.423 477.056 217.285L458.051 216.012C455.136 215.816 452.648 218.101 452.588 221.029Z" fill="#C65D00"/>
<path fill-rule="evenodd" clip-rule="evenodd" d="M462.91 221.94C462.39 224.652 459.772 226.429 457.061 225.91C454.349 225.391 452.571 222.772 453.09 220.06C453.61 217.348 456.228 215.571 458.94 216.09C461.652 216.609 463.429 219.228 462.91 221.94Z" fill="#C65D00"/>
<path fill-rule="evenodd" clip-rule="evenodd" d="M452.367 251H460.486H470.728L471.717 251.767C475.05 254.352 477 258.329 477 262.542V266.483C477 269.53 474.525 272 471.473 272H455.527C452.475 272 449.999 269.53 450 266.483V261.086C450 257.587 450.81 254.135 452.367 251Z" fill="#1D4771"/>
<path fill-rule="evenodd" clip-rule="evenodd" d="M449.011 230.57C449.053 229.937 449.212 229.342 449.458 228.797L449.453 228.795L453.864 219L463 223.229L458.589 233.024L458.583 233.022C457.741 234.891 455.828 236.133 453.685 235.989C450.919 235.801 448.827 233.375 449.011 230.57Z" fill="#C65D00"/>
<path fill-rule="evenodd" clip-rule="evenodd" d="M452.516 223L453 221.364L452.484 221L452 222.637L452.516 223Z" fill="#FFE1D3"/>
<path fill-rule="evenodd" clip-rule="evenodd" d="M453.747 237C454.525 237 455.282 236.844 456 236.533L455.675 235.782C454.957 236.091 454.195 236.222 453.409 236.17C450.704 235.988 448.65 233.641 448.83 230.937C448.87 230.35 449.017 229.775 449.268 229.225L449.442 228.844L449.437 228.841L451.492 224.34L450.748 224L448.343 229.264L448.362 229.272C448.167 229.794 448.05 230.333 448.013 230.882C447.802 234.037 450.198 236.776 453.354 236.987C453.486 236.996 453.617 237 453.747 237Z" fill="#EF8629"/>
<path fill-rule="evenodd" clip-rule="evenodd" d="M481.153 225.783C479.616 228.077 476.51 228.69 474.217 227.153C471.923 225.616 471.31 222.511 472.847 220.217C474.384 217.923 477.489 217.309 479.783 218.847C482.077 220.384 482.69 223.489 481.153 225.783Z" fill="#C65D00"/>
<path fill-rule="evenodd" clip-rule="evenodd" d="M480.373 219L497 233.152L492.369 239L474 227.046L480.373 219Z" fill="#C65D00"/>
<path fill-rule="evenodd" clip-rule="evenodd" d="M461 266.5C461 269.538 458.538 272 455.5 272C452.462 272 450 269.538 450 266.5C450 263.463 452.462 261 455.5 261C458.538 261 461 263.463 461 266.5Z" fill="#1D4771"/>
<path fill-rule="evenodd" clip-rule="evenodd" d="M477 266.5C477 269.538 474.537 272 471.5 272C468.463 272 466 269.538 466 266.5C466 263.463 468.463 261 471.5 261C474.537 261 477 263.463 477 266.5Z" fill="#1D4771"/>
<path fill-rule="evenodd" clip-rule="evenodd" d="M461 294.5C461 296.985 458.985 299 456.5 299C454.014 299 452 296.985 452 294.5C452 292.015 454.014 290 456.5 290C458.985 290 461 292.015 461 294.5Z" fill="#FFE1D3"/>
<path fill-rule="evenodd" clip-rule="evenodd" d="M460.999 266L461 294.663L452.114 295L450 266.418L460.999 266Z" fill="#FFE1D3"/>
<path fill-rule="evenodd" clip-rule="evenodd" d="M469.581 217L461 215.819L462.419 205L471 206.181L469.581 217Z" fill="#FFE1D3"/>
<path fill-rule="evenodd" clip-rule="evenodd" d="M469.959 217.099C469.628 219.562 467.364 221.291 464.901 220.959C462.438 220.629 460.709 218.364 461.041 215.901C461.371 213.438 463.636 211.71 466.099 212.041C468.562 212.371 470.29 214.636 469.959 217.099Z" fill="#FFE1D3"/>
<path fill-rule="evenodd" clip-rule="evenodd" d="M471.866 202.983L470 202.733L470.501 199L472.368 199.25C473.398 199.389 474.121 200.337 473.983 201.368C473.844 202.399 472.897 203.121 471.866 202.983Z" fill="#FFE1D3"/>
<path fill-rule="evenodd" clip-rule="evenodd" d="M458.492 190L473 191.98L470.484 211L461.474 209.77C457.867 209.278 455.415 205.799 456.121 202.172L458.492 190Z" fill="#FFE1D3"/>
<path fill-rule="evenodd" clip-rule="evenodd" d="M472.089 198.947L472.481 199L474 187.626L462.349 186.051C459.272 185.635 456.443 187.807 456.03 190.903L456 191.126L456.392 191.179C459.724 191.629 462.82 193.161 465.209 195.542C467.073 197.4 469.489 198.596 472.089 198.947Z" fill="#49311B"/>
<path fill-rule="evenodd" clip-rule="evenodd" d="M459 225L459.63 216L474 216.917L459 225Z" fill="#FFE1D3"/>
<path fill-rule="evenodd" clip-rule="evenodd" d="M452 295.34L455.827 346L461 345.805V295L452 295.34Z" fill="#FFE1D3"/>
<path fill-rule="evenodd" clip-rule="evenodd" d="M475.001 256.929C474.962 258.033 475.825 258.959 476.93 258.999C478.034 259.038 478.96 258.175 478.999 257.071C479.039 255.966 478.175 255.041 477.071 255.001C475.966 254.962 475.041 255.825 475.001 256.929Z" fill="#FF95A9"/>
<path fill-rule="evenodd" clip-rule="evenodd" d="M471.633 259.998C471.944 260.01 472.242 259.962 472.523 259.869L472.523 259.871L477 258.376L476.503 254.184L471.826 254.002C470.319 253.943 469.055 255.238 469.002 256.894C468.948 258.549 470.127 259.939 471.633 259.998Z" fill="#FFE1D3"/>
<path fill-rule="evenodd" clip-rule="evenodd" d="M492.438 238.328C490.876 237.189 490.533 234.999 491.673 233.437C492.812 231.876 495.001 231.533 496.563 232.673C498.124 233.812 498.466 236.001 497.328 237.562C496.188 239.124 493.999 239.466 492.438 238.328Z" fill="#C65D00"/>
<path fill-rule="evenodd" clip-rule="evenodd" d="M497 237.872L478.063 258L475 255.422L491.213 233L497 237.872Z" fill="#FFE1D3"/>
<path fill-rule="evenodd" clip-rule="evenodd" d="M480.466 256L477 253.146L491.155 234L497 238.814L480.466 256Z" fill="#C65D00"/>
<path fill-rule="evenodd" clip-rule="evenodd" d="M476.759 265L490 344.963L485.005 346L466 267.235L476.759 265Z" fill="#FFE1D3"/>
<path fill-rule="evenodd" clip-rule="evenodd" d="M489.952 345H485V349H491.938C492.525 349 493 348.446 493 347.762C493 347.319 492.797 346.909 492.467 346.687L489.952 345Z" fill="#1D4771"/>
<path fill-rule="evenodd" clip-rule="evenodd" d="M459.024 203C458.853 204.419 459.605 205.747 460.703 205.969C461.801 206.189 462.829 205.218 463 203.799L459.024 203Z" fill="#F69595"/>
<path fill-rule="evenodd" clip-rule="evenodd" d="M461 286H462V283H461V286Z" fill="#624AC9"/>
<path fill-rule="evenodd" clip-rule="evenodd" d="M486.524 236L487 235.178L485.476 234L485 234.822L486.524 236Z" fill="#FF95A9"/>
<path fill-rule="evenodd" clip-rule="evenodd" d="M484.572 234L485 233.3L476.428 227L476 227.7L484.572 234Z" fill="#EF8629"/>
<path fill-rule="evenodd" clip-rule="evenodd" d="M454.951 216L455 215.083L439.048 214L439 214.917L454.951 216Z" fill="#EF8629"/>
<path fill-rule="evenodd" clip-rule="evenodd" d="M443.783 194.906C444.283 193.921 443.89 192.718 442.906 192.217C441.921 191.717 440.718 192.11 440.217 193.094C439.717 194.079 440.11 195.282 441.095 195.783C442.079 196.283 443.282 195.89 443.783 194.906Z" fill="#FFE1D3"/>
<path fill-rule="evenodd" clip-rule="evenodd" d="M447.532 192.909C447.26 192.771 446.975 192.685 446.689 192.645L446.69 192.643L442.135 192L441 195.618L445.1 197.708C446.422 198.381 448.037 197.852 448.708 196.527C449.38 195.203 448.853 193.582 447.532 192.909Z" fill="#FFE1D3"/>
<path fill-rule="evenodd" clip-rule="evenodd" d="M481 292H451.873L450 266.343L476.576 265L481 292Z" fill="#1D4771"/>
<path fill-rule="evenodd" clip-rule="evenodd" d="M456.048 345H461V349H454.062C453.475 349 453 348.446 453 347.762C453 347.319 453.203 346.909 453.533 346.687L456.048 345Z" fill="#1D4771"/>
<path fill-rule="evenodd" clip-rule="evenodd" d="M143.944 345.122C143.601 347.024 141.78 348.287 139.878 347.944C137.976 347.6 136.713 345.78 137.056 343.878C137.399 341.977 139.22 340.713 141.121 341.056C143.023 341.399 144.287 343.22 143.944 345.122Z" fill="#40327A"/>
<path fill-rule="evenodd" clip-rule="evenodd" d="M172 344.5C172 346.433 170.433 348 168.5 348C166.567 348 165 346.433 165 344.5C165 342.567 166.567 341 168.5 341C170.433 341 172 342.567 172 344.5Z" fill="#2FC2A7"/>
<path fill-rule="evenodd" clip-rule="evenodd" d="M176.01 349H166V345H172.661L176.484 347.115C176.802 347.29 177 347.629 177 347.996C177 348.55 176.556 349 176.01 349Z" fill="#F6F3F1"/>
<path fill-rule="evenodd" clip-rule="evenodd" d="M176.991 254.726C177.058 256.609 176.748 258.415 176.127 260.083L149.251 261C148.513 259.378 148.076 257.598 148.009 255.715C147.73 247.864 153.991 241.282 161.996 241.009C169.997 240.735 176.713 246.875 176.991 254.726Z" fill="#FFC359"/>
<path fill-rule="evenodd" clip-rule="evenodd" d="M166 255C166 257.209 164.209 259 162 259C159.791 259 158 257.209 158 255C158 252.791 159.791 251 162 251C164.209 251 166 252.791 166 255Z" fill="#FFC359"/>
<path fill-rule="evenodd" clip-rule="evenodd" d="M228.986 228.287C228.828 229.936 227.363 231.144 225.713 230.986C224.064 230.828 222.856 229.363 223.014 227.713C223.172 226.064 224.638 224.856 226.287 225.014C227.935 225.172 229.145 226.638 228.986 228.287Z" fill="#F7D1C0"/>
<path fill-rule="evenodd" clip-rule="evenodd" d="M224.535 225.118C223.899 225.643 223.505 226.383 223.426 227.205C223.348 228.026 223.593 228.828 224.118 229.465C224.643 230.101 225.384 230.495 226.205 230.574C227.026 230.652 227.829 230.407 228.465 229.882C229.102 229.357 229.495 228.616 229.574 227.794C229.653 226.974 229.407 226.171 228.883 225.535C228.358 224.898 227.616 224.505 226.796 224.426C226.695 224.416 226.594 224.412 226.495 224.412C225.78 224.412 225.094 224.657 224.535 225.118ZM226.166 230.984C225.236 230.894 224.395 230.448 223.801 229.727C223.205 229.006 222.927 228.096 223.016 227.166C223.106 226.235 223.552 225.395 224.274 224.8C224.995 224.205 225.903 223.928 226.835 224.016C227.765 224.105 228.605 224.552 229.2 225.273C229.795 225.994 230.073 226.903 229.983 227.834C229.895 228.765 229.448 229.605 228.728 230.2C228.094 230.722 227.317 231 226.506 231C226.394 231 226.28 230.994 226.166 230.984Z" fill="#F7D1C0"/>
<path fill-rule="evenodd" clip-rule="evenodd" d="M222.988 228.739C223.12 227.365 222.114 226.143 220.739 226.012C219.365 225.88 218.143 226.887 218.012 228.261C217.88 229.635 218.886 230.857 220.261 230.988C221.636 231.12 222.857 230.113 222.988 228.739Z" fill="#F7D1C0"/>
<path fill-rule="evenodd" clip-rule="evenodd" d="M222.605 228.702C222.717 227.541 221.863 226.506 220.702 226.395C219.544 226.283 218.506 227.137 218.394 228.298C218.283 229.459 219.137 230.494 220.298 230.606C221.458 230.716 222.494 229.863 222.605 228.702ZM220.261 230.988C218.889 230.857 217.88 229.633 218.012 228.261C218.143 226.889 219.365 225.881 220.739 226.011C222.111 226.143 223.12 227.367 222.988 228.739C222.864 230.031 221.773 231 220.502 231C220.422 231 220.341 230.996 220.261 230.988Z" fill="#F7D1C0"/>
<path fill-rule="evenodd" clip-rule="evenodd" d="M225.695 225L220 225.993L220.23 230.493L226 231L225.695 225Z" fill="#F7D1C0"/>
<path fill-rule="evenodd" clip-rule="evenodd" d="M220.402 225.496L220.6 230.033L225.593 230.543L225.329 224.494L220.402 225.496ZM220.229 230.408L220 225.158L225.694 224L226 231L220.229 230.408Z" fill="#F7D1C0"/>
<path fill-rule="evenodd" clip-rule="evenodd" d="M195.687 233.675C194.678 230.81 191.538 229.305 188.675 230.313C185.81 231.322 184.305 234.461 185.313 237.326C186.322 240.19 189.461 241.695 192.325 240.687C195.19 239.678 196.695 236.538 195.687 233.675Z" fill="#F7D1C0"/>
<path fill-rule="evenodd" clip-rule="evenodd" d="M195.321 233.802C194.385 231.145 191.462 229.743 188.805 230.679C187.517 231.132 186.484 232.06 185.894 233.29C185.304 234.521 185.229 235.908 185.682 237.196C186.135 238.483 187.062 239.517 188.293 240.107C189.524 240.696 190.91 240.772 192.198 240.318C194.856 239.383 196.256 236.46 195.321 233.802ZM188.125 240.457C186.8 239.823 185.803 238.71 185.315 237.325C184.827 235.94 184.908 234.447 185.543 233.123C186.178 231.798 187.29 230.8 188.675 230.312C191.534 229.306 194.681 230.813 195.688 233.673C196.694 236.533 195.187 239.679 192.327 240.685C191.729 240.895 191.112 241 190.497 241C189.686 241 188.878 240.818 188.125 240.457Z" fill="#F7D1C0"/>
<path fill-rule="evenodd" clip-rule="evenodd" d="M167 224.264L187.56 240L195 232.318L177.909 213L167 224.264Z" fill="#F7D1C0"/>
<path fill-rule="evenodd" clip-rule="evenodd" d="M177.977 212.589L167.579 223.72L187.423 239.466L194.473 231.92L177.977 212.589ZM167 223.763L177.99 212L194.884 231.796L195 231.932L187.462 240L167 223.763Z" fill="#F7D1C0"/>
<path fill-rule="evenodd" clip-rule="evenodd" d="M220.869 226L222 230.611L192.57 241L190 230.517L216.928 226.578L219.278 226.233L220.869 226Z" fill="#F7D1C0"/>
<path fill-rule="evenodd" clip-rule="evenodd" d="M220.506 226.431L190.482 230.751L192.912 240.496L221.536 230.559L220.506 226.431ZM190 230.432L220.801 226L222 230.807L192.636 241L190 230.432Z" fill="#F7D1C0"/>
<path fill-rule="evenodd" clip-rule="evenodd" d="M220.753 226L222 230.342L219.816 231L219 226.219L220.753 226Z" fill="#F7D1C0"/>
<path fill-rule="evenodd" clip-rule="evenodd" d="M220.571 226.46L219.424 226.645L220.062 231.447L221.557 230.868L220.571 226.46ZM219 226.297L220.853 226L222 231.132L219.758 232L219 226.297Z" fill="#F7D1C0"/>
<path fill-rule="evenodd" clip-rule="evenodd" d="M178.307 222.921C175.589 226.405 170.562 227.025 167.079 224.307C163.596 221.59 162.975 216.563 165.693 213.079C168.41 209.596 173.438 208.975 176.921 211.693C180.404 214.411 181.025 219.438 178.307 222.921Z" fill="white"/>
<path fill-rule="evenodd" clip-rule="evenodd" d="M165.997 213.317C163.416 216.627 164.007 221.42 167.316 224.002C170.625 226.585 175.417 225.992 177.999 222.683C179.249 221.08 179.8 219.085 179.551 217.067C179.302 215.049 178.282 213.249 176.68 211.998C175.292 210.915 173.643 210.39 172.006 210.39C169.74 210.39 167.496 211.396 165.997 213.317ZM167.076 224.31C163.598 221.596 162.976 216.556 165.69 213.077C168.404 209.598 173.442 208.976 176.919 211.69C178.604 213.005 179.676 214.898 179.939 217.02C180.2 219.141 179.62 221.238 178.306 222.923C176.73 224.943 174.372 226.001 171.989 226C170.268 226 168.534 225.448 167.076 224.31Z" fill="white"/>
<path fill-rule="evenodd" clip-rule="evenodd" d="M154 225.441L130.691 237L125 227.833L145.655 212L154 225.441Z" fill="#F7D1C0"/>
<path fill-rule="evenodd" clip-rule="evenodd" d="M145.479 212.569L125.517 227.824L130.916 236.495L153.443 225.358L145.479 212.569ZM125 227.73L145.583 212L154 225.517L130.773 237L125 227.73Z" fill="#FF95A9"/>
<path fill-rule="evenodd" clip-rule="evenodd" d="M190 226.883L177.192 212L166 223.878L181.406 236L190 226.883Z" fill="white"/>
<path fill-rule="evenodd" clip-rule="evenodd" d="M154 225.512L145.453 212L130 223.628L136.563 234L154 225.512Z" fill="white"/>
<path fill-rule="evenodd" clip-rule="evenodd" d="M142.831 222.547C144.79 226.506 149.587 228.127 153.546 226.169C157.506 224.211 159.128 219.413 157.169 215.454C155.21 211.494 150.412 209.872 146.454 211.831C142.494 213.79 140.872 218.587 142.831 222.547Z" fill="white"/>
<path fill-rule="evenodd" clip-rule="evenodd" d="M177 261L175.324 295H166.004L166 261H177Z" fill="#1D4771"/>
<path fill-rule="evenodd" clip-rule="evenodd" d="M158.912 261.477C158.372 264.465 155.512 266.451 152.524 265.912C149.534 265.372 147.549 262.511 148.088 259.523C148.628 256.534 151.488 254.549 154.477 255.089C157.465 255.628 159.451 258.489 158.912 261.477Z" fill="#2FC2A7"/>
<path fill-rule="evenodd" clip-rule="evenodd" d="M177 260.5C177 263.538 174.538 266 171.5 266C168.462 266 166 263.538 166 260.5C166 257.463 168.462 255 171.5 255C174.538 255 177 257.463 177 260.5Z" fill="#2FC2A7"/>
<path fill-rule="evenodd" clip-rule="evenodd" d="M176.999 215.606L176.433 254.999L147.352 256L144.02 216.741C143.753 213.593 146.202 210.864 149.393 210.754L171.22 210.003C174.41 209.893 177.045 212.448 176.999 215.606Z" fill="white"/>
<path fill-rule="evenodd" clip-rule="evenodd" d="M177 255L176.733 260.5L176.721 260.77C176.578 263.699 174.193 266 171.298 266H153.701C150.807 266 148.422 263.699 148.28 260.77L148.266 260.5L148 255H177Z" fill="#1D4771"/>
<path fill-rule="evenodd" clip-rule="evenodd" d="M159 261.923L153.028 295L144 293.37L148.347 260L159 261.923Z" fill="#1D4771"/>
<path fill-rule="evenodd" clip-rule="evenodd" d="M175 294.5C175 296.985 172.985 299 170.5 299C168.015 299 166 296.985 166 294.5C166 292.015 168.015 290 170.5 290C172.985 290 175 292.015 175 294.5Z" fill="#1D4771"/>
<path fill-rule="evenodd" clip-rule="evenodd" d="M152.928 294.299C152.486 296.745 150.146 298.369 147.701 297.928C145.255 297.486 143.631 295.146 144.072 292.701C144.514 290.255 146.854 288.631 149.299 289.072C151.745 289.514 153.369 291.854 152.928 294.299Z" fill="#1D4771"/>
<path fill-rule="evenodd" clip-rule="evenodd" d="M172.568 345L175 295H166V345H172.568Z" fill="#1D4771"/>
<path fill-rule="evenodd" clip-rule="evenodd" d="M143.699 345L153 294.62L143.82 293L137 343.817L143.699 345Z" fill="#1D4771"/>
<path fill-rule="evenodd" clip-rule="evenodd" d="M170.016 190.933L168.47 191L168 181.071L169.545 181.005C172.425 180.881 174.865 183.004 174.995 185.745C175.125 188.487 172.895 190.81 170.016 190.933Z" fill="#1D4771"/>
<path fill-rule="evenodd" clip-rule="evenodd" d="M159 200.923L157.404 200.994C154.067 201.143 151.24 198.586 151.089 195.282L151 193.341L158.639 193L159 200.923Z" fill="#1D4771"/>
<path fill-rule="evenodd" clip-rule="evenodd" d="M166 209.56L156.466 210L156 199.44L165.534 199L166 209.56Z" fill="#F7D1C0"/>
<path fill-rule="evenodd" clip-rule="evenodd" d="M167.404 190.912L165.556 191L165 178.065L166.228 178.007C169.803 177.838 172.833 180.742 172.994 184.493V184.494C173.139 187.886 170.637 190.759 167.404 190.912Z" fill="#1D4771"/>
<path fill-rule="evenodd" clip-rule="evenodd" d="M168.534 203.416L155.661 204L155.008 189.408C154.809 184.969 158.222 181.209 162.631 181.008C166.89 180.815 170.55 184.022 170.948 188.295L171.984 199.425C172.177 201.503 170.605 203.322 168.534 203.416Z" fill="#F7D1C0"/>
<path fill-rule="evenodd" clip-rule="evenodd" d="M159.427 180L160 193.624L152.231 194L152.008 188.698C151.814 184.102 155.136 180.207 159.427 180Z" fill="#1D4771"/>
<path fill-rule="evenodd" clip-rule="evenodd" d="M156.045 194.998L158 194.908L157.912 192.91C157.863 191.807 156.949 190.952 155.869 191.002C154.789 191.052 153.953 191.987 154.002 193.09C154.05 194.193 154.965 195.047 156.045 194.998Z" fill="#F7D1C0"/>
<path fill-rule="evenodd" clip-rule="evenodd" d="M172 186.616L164.103 186.994C160.885 187.148 158.148 184.494 158.003 181.079C157.934 179.454 159.12 178.077 160.651 178.003C162.183 177.93 163.481 179.188 163.55 180.813C163.557 180.983 163.693 181.115 163.853 181.108L171.751 180.73L172 186.616Z" fill="#1D4771"/>
<path fill-rule="evenodd" clip-rule="evenodd" d="M169.203 183.812L165.06 183.997C163.445 184.069 162.076 182.827 162.003 181.224C161.93 179.62 163.181 178.261 164.796 178.189L168.94 178.003C170.555 177.931 171.924 179.173 171.997 180.777C172.07 182.38 170.819 183.74 169.203 183.812Z" fill="#1D4771"/>
<path fill-rule="evenodd" clip-rule="evenodd" d="M165.995 209.775C166.119 212.533 163.984 214.871 161.225 214.995C158.467 215.119 156.129 212.984 156.005 210.225C155.881 207.467 158.016 205.129 160.775 205.005C163.533 204.881 165.871 207.016 165.995 209.775Z" fill="#F7D1C0"/>
<path fill-rule="evenodd" clip-rule="evenodd" d="M172.987 202.679C173.142 204.275 171.875 205.672 170.206 205.744L164.409 205.994C161.185 206.134 158.454 203.74 158.308 200.648L158 194.095L160.188 194C160.249 195.288 161.387 196.287 162.73 196.228L172.318 195.813L172.987 202.679Z" fill="#1D4771"/>
<path fill-rule="evenodd" clip-rule="evenodd" d="M156.993 257.204C157.105 255.551 155.857 254.12 154.203 254.007C152.551 253.895 151.12 255.144 151.007 256.796C150.895 258.449 152.143 259.881 153.797 259.993C155.449 260.106 156.881 258.856 156.993 257.204Z" fill="#F7D1C0"/>
<path fill-rule="evenodd" clip-rule="evenodd" d="M152.47 254.174C151.848 254.716 151.475 255.467 151.419 256.291C151.363 257.114 151.631 257.909 152.173 258.53C152.716 259.152 153.467 259.526 154.291 259.582C155.989 259.697 157.465 258.409 157.581 256.71C157.637 255.887 157.369 255.091 156.826 254.47C156.284 253.849 155.532 253.475 154.709 253.419C154.638 253.414 154.567 253.412 154.495 253.412C153.75 253.412 153.037 253.679 152.47 254.174ZM154.263 259.993C153.33 259.929 152.478 259.506 151.863 258.801C151.248 258.097 150.945 257.196 151.008 256.263C151.072 255.33 151.495 254.478 152.199 253.863C152.904 253.248 153.808 252.945 154.738 253.008C155.67 253.072 156.523 253.495 157.137 254.199C157.751 254.903 158.055 255.805 157.992 256.738C157.866 258.583 156.325 260.001 154.502 260C154.423 260 154.343 259.997 154.263 259.993Z" fill="#F7D1C0"/>
<path fill-rule="evenodd" clip-rule="evenodd" d="M150.994 255.67C150.9 257.047 149.708 258.088 148.33 257.994C146.953 257.9 145.912 256.708 146.006 255.33C146.1 253.953 147.292 252.912 148.67 253.006C150.047 253.1 151.088 254.292 150.994 255.67Z" fill="#FF95A9"/>
<path fill-rule="evenodd" clip-rule="evenodd" d="M147.109 253.906C146.684 254.277 146.428 254.792 146.389 255.356C146.351 255.92 146.535 256.465 146.906 256.89C147.277 257.316 147.792 257.572 148.356 257.61C148.918 257.647 149.465 257.465 149.89 257.093C150.316 256.722 150.572 256.207 150.61 255.643C150.648 255.08 150.465 254.534 150.094 254.109C149.722 253.683 149.207 253.428 148.643 253.389C148.594 253.386 148.545 253.384 148.496 253.384C147.986 253.384 147.498 253.566 147.109 253.906ZM148.33 257.994C147.664 257.949 147.055 257.646 146.616 257.143C146.177 256.64 145.96 255.996 146.006 255.33C146.052 254.664 146.353 254.055 146.856 253.616C147.359 253.177 148.004 252.96 148.669 253.006C149.335 253.051 149.944 253.353 150.384 253.856C150.823 254.359 151.04 255.003 150.994 255.669C150.949 256.335 150.646 256.944 150.143 257.383C149.684 257.784 149.107 258 148.504 258C148.446 258 148.389 257.998 148.33 257.994Z" fill="#FF95A9"/>
<path fill-rule="evenodd" clip-rule="evenodd" d="M152.794 260L148 257.946L148.905 253L154 253.404L152.794 260Z" fill="#F7D1C0"/>
<path fill-rule="evenodd" clip-rule="evenodd" d="M149.373 253.419L148.461 257.694L153.299 259.47L154.516 253.769L149.373 253.419ZM148 257.948L149.056 253L155 253.404L153.593 260L148 257.948Z" fill="#F7D1C0"/>
<path fill-rule="evenodd" clip-rule="evenodd" d="M131.703 236.971C129.234 238.74 125.798 238.172 124.029 235.703C122.26 233.234 122.828 229.798 125.297 228.029C127.766 226.26 131.202 226.829 132.971 229.298C134.74 231.767 134.172 235.203 131.703 236.971Z" fill="#F7D1C0"/>
<path fill-rule="evenodd" clip-rule="evenodd" d="M131.478 236.656C133.77 235.015 134.298 231.814 132.657 229.523C131.015 227.231 127.815 226.702 125.522 228.343C123.231 229.985 122.702 233.185 124.343 235.477C125.985 237.769 129.185 238.298 131.478 236.656ZM124.027 235.703C122.26 233.237 122.83 229.794 125.296 228.027C127.762 226.26 131.206 226.83 132.973 229.296C134.739 231.763 134.17 235.206 131.704 236.973C130.735 237.666 129.617 238 128.508 238C126.792 238 125.1 237.202 124.027 235.703Z" fill="#F7D1C0"/>
<path fill-rule="evenodd" clip-rule="evenodd" d="M133.018 229L151 253.934L147.472 257L146.315 255.916L144.604 254.314L125 235.97L133.018 229Z" fill="#F7D1C0"/>
<path fill-rule="evenodd" clip-rule="evenodd" d="M132.414 229.585L124.593 236.378L147.152 257.465L150.465 254.589L132.414 229.585ZM124 236.367L132.483 229L150.895 254.504L151 254.649L147.141 258L124 236.367Z" fill="#F7D1C0"/>
<path fill-rule="evenodd" clip-rule="evenodd" d="M147.236 258L151 254.769L149.707 253L146 256.858L147.236 258Z" fill="#F7D1C0"/>
<path fill-rule="evenodd" clip-rule="evenodd" d="M149.57 253.575L146.531 256.725L147.379 257.505L150.496 254.84L149.57 253.575ZM146 256.74L149.609 253L151 254.896L147.369 258L146 256.74Z" fill="#F7D1C0"/>
<path fill-rule="evenodd" clip-rule="evenodd" d="M186 349H190V348H186V349Z" fill="#DCD6D3"/>
<path fill-rule="evenodd" clip-rule="evenodd" d="M62 349H66V348H62V349Z" fill="#AFA5A2"/>
<path fill-rule="evenodd" clip-rule="evenodd" d="M181.542 236L182 235.402L176.459 231L176 231.598L181.542 236Z" fill="white"/>
<path fill-rule="evenodd" clip-rule="evenodd" d="M165 198.179C165.052 199.233 165.989 200.047 167.093 199.998C168.197 199.948 169.05 199.054 168.998 198L165 198.179Z" fill="white"/>
<path fill-rule="evenodd" clip-rule="evenodd" d="M133.99 349H144V345H137.338L133.515 347.115C133.197 347.29 133 347.629 133 347.996C133 348.55 133.443 349 133.99 349Z" fill="#F6F3F1"/>
<path fill-rule="evenodd" clip-rule="evenodd" d="M112.874 48.7915C112.564 45.9507 111.748 44.0143 109.808 42.947C104.059 39.7837 89.6305 44.9162 83.6305 52.8347C75.2647 63.8775 82.8952 80.8581 91.0221 81.9424C100.478 83.2041 114.473 63.4603 112.874 48.7915Z" fill="#F8F3F0"/>
<defs>
<linearGradient id="paint0_linear" x1="190.307" y1="-93.6049" x2="24.9512" y2="314.585" gradientUnits="userSpaceOnUse">
<stop stop-color="#82AA64"/>
<stop offset="1" stop-color="#94B03D"/>
</linearGradient>
</defs>
</svg>
