<svg width="666" height="20" viewBox="0 0 666 20" fill="none" xmlns="http://www.w3.org/2000/svg">
<path fill-rule="evenodd" clip-rule="evenodd" d="M662.799 19.2H665.6V16.64H662.799V19.2ZM657.318 19.2H660.118V16.64H657.318V19.2ZM651.717 19.2H654.518V16.64H651.717V19.2ZM645.913 19.2H648.713V16.64H645.913V19.2ZM640.313 19.2H643.113V16.64H640.313V19.2ZM634.726 19.2H637.527V16.64H634.726V19.2ZM629.125 19.2H631.926V16.64H629.125V19.2ZM623.525 19.2H626.325V16.64H623.525V19.2ZM617.93 19.2H620.73V16.64H617.93V19.2ZM612.336 19.2H615.131V16.64H612.336V19.2ZM606.736 19.2H609.536V16.64H606.736V19.2ZM601.144 19.2H603.936V16.64H601.144V19.2ZM595.541 19.2H598.341V16.64H595.541V19.2ZM589.948 19.2H592.741V16.64H589.948V19.2ZM584.347 19.2H587.148V16.64H584.347V19.2ZM578.753 19.2H581.546V16.64H578.753V19.2ZM573.153 19.2H575.953V16.64H573.153V19.2ZM567.559 19.2H570.359V16.64H567.559V19.2ZM561.959 19.2H564.759V16.64H561.959V19.2ZM556.365 19.2H559.165V16.64H556.365V19.2ZM550.764 19.2H553.564V16.64H550.764V19.2ZM545.171 19.2H547.97V16.64H545.171V19.2ZM539.569 19.2H542.369V16.64H539.569V19.2ZM533.975 19.2H536.776V16.64H533.975V19.2ZM528.376 19.2H531.175V16.64H528.376V19.2ZM522.781 19.2H525.581V16.64H522.781V19.2ZM517.183 19.2H519.981V16.64H517.183V19.2ZM511.587 19.2H514.388V16.64H511.587V19.2ZM505.993 19.2H508.786V16.64H505.993V19.2ZM500.392 19.2H503.193V16.64H500.392V19.2ZM494.799 19.2H497.593V16.64H494.799V19.2ZM489.198 19.2H491.997V16.64H489.198V19.2ZM483.603 19.2H486.398V16.64H483.603V19.2ZM478.004 19.2H480.804V16.64H478.004V19.2ZM472.41 19.2H475.203V16.64H472.41V19.2ZM466.809 19.2H469.609V16.64H466.809V19.2ZM461.216 19.2H464.014V16.64H461.216V19.2ZM455.614 19.2H458.415V16.64H455.614V19.2ZM450.021 19.2H452.821V16.64H450.021V19.2ZM444.421 19.2H447.22V16.64H444.421V19.2ZM438.826 19.2H441.627V16.64H438.826V19.2ZM433.226 19.2H436.026V16.64H433.226V19.2ZM427.633 19.2H430.433V16.64H427.633V19.2ZM422.033 19.2H424.831V16.64H422.033V19.2ZM416.437 19.2H419.238V16.64H416.437V19.2ZM410.957 19.2H413.756V16.64H410.957V19.2ZM405.355 19.2H408.156V16.64H405.355V19.2ZM399.761 19.2H402.561V16.64H399.761V19.2ZM394.161 19.2H396.961V16.64H394.161V19.2ZM388.567 19.2H391.367V16.64H388.567V19.2ZM382.967 19.2H385.767V16.64H382.967V19.2ZM377.372 19.2H380.173V16.64H377.372V19.2ZM371.773 19.2H374.572V16.64H371.773V19.2ZM366.178 19.2H368.978V16.64H366.178V19.2ZM307.374 19.2H310.174V16.64H307.374V19.2ZM301.773 19.2H304.573V16.64H301.773V19.2ZM296.172 19.2H298.973V16.64H296.172V19.2ZM290.585 19.2H293.386V16.64H290.585V19.2ZM284.985 19.2H287.784V16.64H284.985V19.2ZM279.384 19.2H282.184V16.64H279.384V19.2ZM273.789 19.2H276.59V16.64H273.789V19.2ZM268.196 19.2H270.991V16.64H268.196V19.2ZM262.594 19.2H265.395V16.64H262.594V19.2ZM257.002 19.2H259.795V16.64H257.002V19.2ZM251.401 19.2H254.201V16.64H251.401V19.2ZM245.807 19.2H248.601V16.64H245.807V19.2ZM240.206 19.2H243.007V16.64H240.206V19.2ZM234.613 19.2H237.406V16.64H234.613V19.2ZM229.012 19.2H231.813V16.64H229.012V19.2ZM223.418 19.2H226.219V16.64H223.418V19.2ZM217.818 19.2H220.618V16.64H217.818V19.2ZM212.224 19.2H215.024V16.64H212.224V19.2ZM206.623 19.2H209.423V16.64H206.623V19.2ZM201.031 19.2H203.83V16.64H201.031V19.2ZM195.428 19.2H198.229V16.64H195.428V19.2ZM189.835 19.2H192.636V16.64H189.835V19.2ZM184.235 19.2H187.035V16.64H184.235V19.2ZM178.641 19.2H181.441V16.64H178.641V19.2ZM173.042 19.2H175.84V16.64H173.042V19.2ZM167.447 19.2H170.247V16.64H167.447V19.2ZM161.852 19.2H164.646V16.64H161.852V19.2ZM156.252 19.2H159.053V16.64H156.252V19.2ZM150.658 19.2H153.452V16.64H150.658V19.2ZM145.057 19.2H147.858V16.64H145.057V19.2ZM139.463 19.2H142.257V16.64H139.463V19.2ZM133.862 19.2H136.663V16.64H133.862V19.2ZM128.269 19.2H131.063V16.64H128.269V19.2ZM122.668 19.2H125.469V16.64H122.668V19.2ZM117.076 19.2H119.874V16.64H117.076V19.2ZM111.473 19.2H114.273V16.64H111.473V19.2ZM105.88 19.2H108.68V16.64H105.88V19.2ZM100.28 19.2H103.081V16.64H100.28V19.2ZM94.6856 19.2H97.4863V16.64H94.6856V19.2ZM89.0848 19.2H91.8855V16.64H89.0848V19.2ZM83.4913 19.2H86.292V16.64H83.4913V19.2ZM77.8925 19.2H80.6912V16.64H77.8925V19.2ZM72.297 19.2H75.0977V16.64H72.297V19.2ZM66.8159 19.2H69.6153V16.64H66.8159V19.2ZM61.2145 19.2H64.0159V16.64H61.2145V19.2ZM55.621 19.2H58.4204V16.64H55.621V19.2ZM50.0202 19.2H52.8202V16.64H50.0202V19.2ZM44.4273 19.2H47.2267V16.64H44.4273V19.2ZM38.8252 19.2H41.6266V16.64H38.8252V19.2ZM33.2317 19.2H36.0324V16.64H33.2317V19.2ZM27.6329 19.2H30.4316V16.64H27.6329V19.2ZM22.2768 19.2H25.0769V16.64H22.2768V19.2ZM16.678 19.2H19.4774V16.64H16.678V19.2ZM11.0819 19.2H13.8826V16.64H11.0819V19.2ZM5.60145 19.2H8.4002V16.64H5.60145V19.2ZM0 19.2H2.80073V16.64H0V19.2Z" fill="#AFA5A2"/>
<mask id="mask0" mask-type="alpha" maskUnits="userSpaceOnUse" x="330" y="0" width="23" height="20">
<path fill-rule="evenodd" clip-rule="evenodd" d="M330.573 0.515949H352.108V19.2H330.573V0.515949Z" fill="white"/>
</mask>
<g mask="url(#mask0)">
<path fill-rule="evenodd" clip-rule="evenodd" d="M349.45 9.21951C349.063 4.34867 344.994 0.515949 340.029 0.515949C334.806 0.515949 330.573 4.75253 330.573 9.97824C330.573 14.4763 333.71 18.2395 337.914 19.2002V16.5135C335.157 15.6204 333.163 13.0343 333.163 9.97824C333.163 6.18458 336.237 3.10861 340.029 3.10861C343.562 3.10861 346.46 5.78403 346.839 9.21951H344.244L348.176 14.0314L352.108 9.21951H349.45Z" fill="url(#paint0_linear)"/>
</g>
<mask id="mask1" mask-type="alpha" maskUnits="userSpaceOnUse" x="0" y="0" width="666" height="20">
<path fill-rule="evenodd" clip-rule="evenodd" d="M0 19.2H665.725V0.515751H0V19.2Z" fill="white"/>
</mask>
<g mask="url(#mask1)">
<path fill-rule="evenodd" clip-rule="evenodd" d="M339.639 19.0841H362.588V16.5325H339.639V19.0841Z" fill="url(#paint1_linear)"/>
<path fill-rule="evenodd" clip-rule="evenodd" d="M334.117 19.0843H313.719V16.5327H331.128C331.837 17.6463 332.857 18.7029 334.117 19.0843Z" fill="url(#paint2_linear)"/>
</g>
<defs>
<linearGradient id="paint0_linear" x1="336.792" y1="-4.50973" x2="325.84" y2="14.7859" gradientUnits="userSpaceOnUse">
<stop stop-color="#82AA64"/>
<stop offset="1" stop-color="#94B03D"/>
</linearGradient>
<linearGradient id="paint1_linear" x1="346.267" y1="15.8462" x2="346.015" y2="19.3119" gradientUnits="userSpaceOnUse">
<stop stop-color="#82AA64"/>
<stop offset="1" stop-color="#94B03D"/>
</linearGradient>
<linearGradient id="paint2_linear" x1="319.61" y1="15.8463" x2="319.327" y2="19.3072" gradientUnits="userSpaceOnUse">
<stop stop-color="#82AA64"/>
<stop offset="1" stop-color="#94B03D"/>
</linearGradient>
</defs>
</svg>
