<svg width="20" height="24" viewBox="0 0 20 24" fill="none" xmlns="http://www.w3.org/2000/svg">
<path fill-rule="evenodd" clip-rule="evenodd" d="M6.35477 4.58992C6.35477 4.88119 6.59045 5.11829 6.88324 5.11829C7.17452 5.11829 7.41172 4.88119 7.41172 4.58992C7.41172 4.29816 7.17452 4.06154 6.88324 4.06154C6.59045 4.06154 6.35477 4.29816 6.35477 4.58992ZM12.0787 4.58992C12.0787 4.88119 12.3138 5.11829 12.6071 5.11829C12.8988 5.11829 13.1345 4.88119 13.1345 4.58992C13.1345 4.29816 12.8988 4.06154 12.6071 4.06154C12.3138 4.06154 12.0787 4.29816 12.0787 4.58992ZM3.60765 6.63939C3.98403 4.84742 5.12457 3.33828 6.67052 2.46549L5.69944 0.712886C5.63407 0.594667 5.67591 0.445138 5.79479 0.380336C5.91463 0.314585 6.06358 0.356427 6.12991 0.47474L7.10867 2.2411C7.91002 1.8687 8.80359 1.66167 9.74422 1.66167C10.6852 1.66167 11.5794 1.8687 12.3812 2.2411L13.3589 0.47474C13.4263 0.356901 13.5742 0.314111 13.6935 0.380336C13.8124 0.445138 13.8552 0.594667 13.7899 0.713455L12.8188 2.46549C14.3659 3.33828 15.5063 4.84742 15.8817 6.63939C15.9425 6.92849 15.7216 7.20193 15.4241 7.20193H4.06459C3.76771 7.20193 3.54598 6.92849 3.60765 6.63939ZM17.9724 7.87974C17.2129 7.87974 16.5979 8.49493 16.5979 9.25444V14.8361C16.5979 15.595 17.2129 16.209 17.9724 16.209C18.7319 16.209 19.3466 15.595 19.3466 14.8361V9.25444C19.3466 8.49493 18.7319 7.87974 17.9724 7.87974ZM1.54442 7.87974C0.785956 7.87974 0.170288 8.49493 0.170288 9.25444V14.8361C0.170288 15.595 0.785007 16.209 1.54442 16.209C2.30392 16.209 2.91902 15.595 2.91902 14.8361V9.25444C2.91902 8.49493 2.30392 7.87974 1.54442 7.87974ZM16.0128 8.34854V18.0549C16.0128 18.3119 15.802 18.5216 15.5456 18.5216H13.4548V21.7932C13.4548 22.5511 12.8376 23.1673 12.0802 23.1673C11.3208 23.1673 10.7047 22.5511 10.7047 21.7932V18.5216H8.78271V21.7932C8.78271 22.5511 8.16752 23.1673 7.40849 23.1673C6.64956 23.1673 6.03341 22.5511 6.03341 21.7932V18.5216H3.97132C3.71372 18.5216 3.50404 18.3119 3.50404 18.0549V8.34854C3.50404 8.09094 3.71372 7.88183 3.97132 7.88183H15.5456C15.802 7.88183 16.0128 8.09094 16.0128 8.34854Z" fill="#4E9E3E"/>
</svg>
