<svg width="190" height="40" viewBox="0 0 190 40" fill="none" xmlns="http://www.w3.org/2000/svg">
<path fill-rule="evenodd" clip-rule="evenodd" d="M64 31.6893V0.866714H74.75C76.769 0.866714 78.5152 1.08339 79.9886 1.46258C81.4619 1.84177 82.6079 2.38347 83.5355 3.08768C84.4632 3.79188 85.118 4.6586 85.5546 5.68783C85.9911 6.71705 86.2094 7.85462 86.2094 9.10053C86.2094 9.80473 86.1003 10.5089 85.882 11.159C85.6637 11.809 85.3363 12.4591 84.8997 13.0008C84.4632 13.5425 83.8629 14.0841 83.1536 14.5717C82.4442 15.0592 81.6256 15.4384 80.698 15.7634C84.9543 16.7385 87.0825 19.0136 87.0825 22.643C87.0825 23.9431 86.8096 25.1348 86.3185 26.2724C85.8274 27.3558 85.0635 28.3308 84.1358 29.1434C83.1536 29.9559 82.0076 30.5518 80.5888 31.0393C79.1701 31.4727 77.5876 31.7435 75.7868 31.7435H64V31.6893ZM69.7843 14.1925H74.4226C76.3871 14.1925 77.8604 13.8133 78.8972 13.1091C79.934 12.4049 80.4251 11.2673 80.4251 9.69639C80.4251 8.0713 79.9886 6.93373 79.0609 6.2837C78.1332 5.57949 76.7145 5.25447 74.75 5.25447H69.7843V14.1925ZM69.7843 27.2474V18.2011H75.5685C76.6053 18.2011 77.4784 18.3094 78.1878 18.5261C78.8972 18.7428 79.4975 19.0136 79.934 19.3928C80.4251 19.772 80.7525 20.2053 80.9708 20.747C81.1891 21.2887 81.2982 21.8846 81.2982 22.5346C81.2982 23.1305 81.2437 23.7805 81.0254 24.3222C80.8617 24.9181 80.5343 25.4056 80.0977 25.839C79.6612 26.2724 79.0609 26.5974 78.3515 26.8682C77.6421 27.1391 76.769 27.2474 75.6777 27.2474H69.7843Z" fill="#001224"/>
<path fill-rule="evenodd" clip-rule="evenodd" d="M104.599 10.1298C103.453 9.6964 102.143 9.47972 100.779 9.47972C99.1421 9.47972 97.6688 9.75057 96.1409 10.2381C94.8312 10.834 93.7398 11.5923 92.8122 12.5674C91.9391 13.5425 91.2297 14.6259 90.7386 15.9801C90.2474 17.3343 90.0292 18.6886 90.0292 20.2053C90.0292 22.1555 90.302 23.8347 90.8477 25.2973C91.3934 26.7599 92.1573 28.0058 93.1396 28.9809C94.1218 29.9559 95.2678 30.7143 96.5774 31.2018C97.887 31.6893 99.3058 31.9602 100.834 31.9602C101.598 31.9602 102.416 31.906 103.235 31.7977C104.108 31.6893 104.872 31.4727 105.69 31.2018C106.509 30.931 107.273 30.6059 107.982 30.1184C108.692 29.6309 109.346 29.0892 109.947 28.385L108.419 26.489C108.31 26.3265 108.2 26.2182 108.037 26.1099C107.873 26.0557 107.709 26.0015 107.491 26.0015C107.164 26.0015 106.782 26.1099 106.454 26.3265C106.326 26.3902 106.189 26.4706 106.041 26.5578C105.811 26.6931 105.552 26.8448 105.254 26.9766C104.763 27.1933 104.217 27.4099 103.617 27.6266C102.962 27.8433 102.253 27.9516 101.379 27.9516C99.6332 27.9516 98.2145 27.4099 97.1777 26.3807C96.1409 25.3515 95.5406 23.6722 95.3769 21.4513H109.019C109.237 21.4513 109.456 21.3971 109.619 21.3429C109.743 21.3019 109.836 21.1987 109.921 21.104C109.948 21.0737 109.975 21.0442 110.001 21.0179C110.11 20.9096 110.165 20.6929 110.22 20.422C110.274 20.1512 110.274 19.8262 110.274 19.447C110.274 17.876 110.056 16.4676 109.565 15.2217C109.128 13.9758 108.419 12.9466 107.6 12.0799C106.782 11.2132 105.745 10.5631 104.599 10.1298ZM97.2322 14.5717C98.1053 13.705 99.3604 13.2716 100.888 13.2716C101.707 13.2716 102.362 13.3799 102.907 13.6508C103.508 13.9216 103.999 14.3008 104.381 14.7342C104.763 15.1676 105.09 15.7092 105.254 16.3051C105.417 16.9552 105.527 17.551 105.527 18.2552H95.5406C95.8134 16.6843 96.3591 15.4384 97.2322 14.5717Z" fill="#001224"/>
<path fill-rule="evenodd" clip-rule="evenodd" d="M129.537 31.6893H131.883V17.8219C131.883 16.576 131.72 15.4384 131.338 14.4092C131.01 13.3799 130.464 12.5132 129.755 11.7548C129.046 11.0506 128.227 10.4548 127.19 10.0214C126.208 9.58806 125.062 9.37138 123.753 9.37138C120.206 9.37138 117.095 10.5089 114.585 12.8382L115.567 14.5175C115.676 14.7884 115.895 15.0592 116.168 15.2217C116.44 15.3842 116.713 15.4926 117.095 15.4926C117.532 15.4926 117.914 15.3842 118.296 15.1675C118.623 15.005 119.005 14.7884 119.442 14.5175C119.824 14.3008 120.315 14.0841 120.915 13.8675C121.461 13.6508 122.17 13.5425 123.043 13.5425C124.244 13.5425 125.171 13.9216 125.772 14.6258C126.372 15.3842 126.699 16.4676 126.699 17.9302V19.2303C124.189 19.2303 122.115 19.447 120.424 19.8803C118.732 20.3137 117.423 20.8554 116.386 21.5054C115.349 22.1555 114.64 22.8597 114.203 23.6722C113.766 24.4848 113.548 25.2973 113.548 26.1098C113.548 27.0849 113.712 27.9516 114.039 28.71C114.367 29.4142 114.803 30.0642 115.349 30.5518C115.895 31.0393 116.604 31.4185 117.368 31.6893C118.132 31.9602 119.005 32.0685 119.933 32.0685C120.697 32.0685 121.461 32.0144 122.061 31.8519C122.661 31.6893 123.261 31.5268 123.862 31.256C124.462 30.9851 125.008 30.6601 125.553 30.2809C126.099 29.9017 126.645 29.4684 127.19 28.9809L127.681 30.5518C127.845 31.0393 128.063 31.3102 128.336 31.4727C128.664 31.6352 129.046 31.6893 129.537 31.6893ZM123.152 28.2766C122.661 28.385 122.17 28.4392 121.624 28.4392C120.751 28.4392 119.987 28.2225 119.496 27.7891C118.951 27.3558 118.678 26.7057 118.678 25.7848C118.678 25.2973 118.787 24.8639 119.06 24.4848C119.332 24.1056 119.769 23.7805 120.424 23.4555C121.079 23.1305 121.897 22.8597 122.934 22.6972C123.971 22.5346 125.28 22.4263 126.808 22.4263V26.1098C126.426 26.489 126.044 26.8682 125.662 27.1391C125.381 27.3389 125.069 27.5093 124.772 27.6719C124.666 27.7297 124.562 27.7865 124.462 27.8433L124.462 27.8433C124.025 28.0058 123.589 28.1683 123.152 28.2766Z" fill="#001224"/>
<path fill-rule="evenodd" clip-rule="evenodd" d="M144.761 9.42554C145.689 9.42554 146.617 9.53388 147.435 9.69639C148.254 9.8589 149.018 10.1839 149.727 10.5631H156.057V12.5132C156.057 12.8382 155.948 13.1091 155.784 13.2716C155.621 13.4341 155.293 13.5966 154.911 13.6508L152.947 14.03C153.11 14.4092 153.22 14.7884 153.274 15.2217C153.329 15.6551 153.383 16.0884 153.383 16.5218C153.383 17.6052 153.165 18.5802 152.728 19.447C152.292 20.3137 151.692 21.0721 150.928 21.6679C150.164 22.2638 149.236 22.7513 148.199 23.0763C147.162 23.4014 146.016 23.5639 144.761 23.5639C143.943 23.5639 143.124 23.5097 142.306 23.3472C141.596 23.7805 141.269 24.2139 141.269 24.7556C141.269 25.189 141.487 25.514 141.869 25.7307C142.251 25.9473 142.797 26.1098 143.506 26.164C144.161 26.2724 144.925 26.2724 145.798 26.2724C146.568 26.2724 147.387 26.3203 148.254 26.3711L148.418 26.3807C149.277 26.4309 150.043 26.5741 150.845 26.7241L151.037 26.7599C151.855 26.9224 152.619 27.1932 153.329 27.6266C153.983 28.0058 154.529 28.5475 154.966 29.1975C155.348 29.8476 155.566 30.7143 155.566 31.7435C155.566 32.7186 155.348 33.6395 154.857 34.5603C154.365 35.4812 153.656 36.2938 152.783 36.998C151.855 37.7022 150.764 38.2981 149.454 38.7314C148.145 39.1648 146.617 39.3815 144.925 39.3815C143.233 39.3815 141.815 39.2189 140.56 38.8939C139.305 38.5689 138.322 38.1355 137.504 37.5938C136.685 37.0522 136.085 36.4563 135.703 35.7521C135.321 35.0479 135.103 34.3437 135.103 33.5853C135.103 32.5561 135.43 31.6893 136.03 30.9851C136.631 30.2809 137.558 29.7392 138.65 29.3059C138.104 28.9809 137.668 28.6017 137.34 28.1141C137.013 27.6266 136.849 26.9766 136.849 26.164C136.849 25.839 136.904 25.514 137.013 25.1348C137.122 24.8098 137.286 24.4306 137.558 24.1056C137.777 23.7805 138.104 23.4555 138.431 23.1305C138.813 22.8055 139.195 22.5346 139.687 22.318C138.595 21.7221 137.668 20.9095 137.067 19.9345C136.412 18.9594 136.085 17.7677 136.085 16.4135C136.085 15.3301 136.303 14.355 136.74 13.4883C137.176 12.6216 137.777 11.8632 138.541 11.2673C139.305 10.6715 140.232 10.1839 141.324 9.8589C142.36 9.58805 143.506 9.42554 144.761 9.42554ZM150.6 32.6102C150.6 32.1769 150.491 31.7977 150.218 31.5268C149.945 31.256 149.618 31.0393 149.181 30.8768C148.745 30.7143 148.199 30.6059 147.599 30.5518C146.999 30.4976 146.398 30.4434 145.689 30.4434H143.615C142.906 30.4434 142.197 30.3893 141.542 30.2268C140.942 30.5518 140.45 30.931 140.069 31.3643C139.687 31.7977 139.523 32.3394 139.523 32.9352C139.523 33.3144 139.632 33.6936 139.796 34.0186C140.014 34.3437 140.287 34.6145 140.723 34.8854C141.16 35.102 141.706 35.3187 142.36 35.4271C143.015 35.5354 143.834 35.6437 144.816 35.6437C145.798 35.6437 146.671 35.5896 147.381 35.4271C148.09 35.2645 148.69 35.0479 149.127 34.777C149.618 34.5062 149.945 34.1812 150.164 33.802C150.491 33.4769 150.6 33.0436 150.6 32.6102ZM146.508 19.9345C146.016 20.097 145.416 20.2053 144.761 20.2053C144.161 20.2053 143.561 20.1512 143.015 19.8803C142.524 19.7178 142.142 19.447 141.815 19.1219C141.487 18.7969 141.269 18.4177 141.105 17.9844C140.942 17.551 140.832 17.0635 140.832 16.576C140.832 15.5467 141.16 14.68 141.815 14.03C142.47 13.3799 143.452 13.0549 144.761 13.0549C146.071 13.0549 147.053 13.4341 147.708 14.03C148.363 14.6258 148.69 15.4926 148.69 16.576C148.69 17.1177 148.581 17.6052 148.418 18.0385C148.254 18.4719 148.036 18.8511 147.708 19.1761C147.381 19.5011 146.999 19.772 146.508 19.9345Z" fill="#001224"/>
<path d="M165.061 0V31.6893H159.768V0H165.061Z" fill="#001224"/>
<path fill-rule="evenodd" clip-rule="evenodd" d="M183.996 10.1298C182.85 9.6964 181.541 9.47972 180.176 9.47972C178.485 9.47972 177.011 9.75057 175.538 10.2381C174.228 10.834 173.137 11.5923 172.209 12.5674C171.336 13.5425 170.627 14.6259 170.136 15.9801C169.645 17.3343 169.426 18.6886 169.426 20.2053C169.426 22.1555 169.699 23.8347 170.245 25.2973C170.791 26.7599 171.555 28.0058 172.537 28.9809C173.519 29.9559 174.665 30.7143 175.975 31.2018C177.284 31.6893 178.703 31.9602 180.231 31.9602C180.995 31.9602 181.813 31.906 182.632 31.7977C183.505 31.6893 184.269 31.4727 185.088 31.2018C185.906 30.931 186.67 30.6059 187.379 30.1184C188.089 29.6309 188.744 29.0892 189.344 28.385L187.816 26.489C187.707 26.3265 187.598 26.2182 187.434 26.1099C187.27 26.0557 187.107 26.0015 186.888 26.0015C186.561 26.0015 186.179 26.1099 185.852 26.3265C185.723 26.3902 185.586 26.4706 185.438 26.5578C185.208 26.6931 184.95 26.8448 184.651 26.9766C184.16 27.1933 183.614 27.4099 183.014 27.6266C182.359 27.8433 181.65 27.9516 180.777 27.9516C179.03 27.9516 177.612 27.4099 176.575 26.3807C175.538 25.3515 174.938 23.6722 174.774 21.4513H188.416C188.635 21.4513 188.853 21.3971 189.016 21.3429C189.14 21.3019 189.233 21.1987 189.318 21.104C189.346 21.0737 189.372 21.0442 189.398 21.0179C189.508 20.9096 189.562 20.6929 189.617 20.422C189.671 20.1512 189.671 19.8262 189.671 19.447C189.671 17.876 189.453 16.4676 188.962 15.2217C188.525 13.9758 187.816 12.9466 186.997 12.0799C186.179 11.2132 185.142 10.5631 183.996 10.1298ZM176.629 14.5717C177.503 13.705 178.758 13.2716 180.286 13.2716C181.049 13.2716 181.759 13.3799 182.305 13.6508C182.905 13.9216 183.396 14.3008 183.778 14.7342C184.16 15.1676 184.487 15.7092 184.651 16.3051C184.815 16.9552 184.924 17.551 184.924 18.2552H174.938C175.211 16.6843 175.756 15.4384 176.629 14.5717Z" fill="#001224"/>
<path fill-rule="evenodd" clip-rule="evenodd" d="M17.6028 1.61941C17.872 1.33786 18.2488 1.16893 18.6256 1.16893C18.8948 1.16893 19.1639 1.28155 19.4331 1.45048C19.7246 1.65374 21.3866 2.83025 23.8537 4.5766C30.955 9.60345 44.7264 19.3518 51.678 24.1995L52.324 24.65C52.9161 25.1005 53.1315 25.9451 52.7546 26.6208C52.4855 27.1276 52.001 27.4092 51.5165 27.4092C51.3012 27.4092 51.1397 27.4092 50.9244 27.2965C50.8705 27.2402 48.0175 25.9451 43.9801 25.3257C42.8497 25.1005 41.4501 24.9879 39.9966 24.9879C36.9282 24.9879 33.3215 25.6073 29.8763 27.5218C29.661 27.6344 29.3919 27.6907 29.1765 27.6907C28.9612 27.6907 28.7459 27.6344 28.5306 27.5218C28.1537 27.2965 27.8308 26.8461 27.7769 26.3956C26.059 14.827 21.182 8.35512 17.5781 3.57259L17.549 3.53393C17.0645 2.97083 17.1183 2.1825 17.6028 1.61941ZM32.4521 14.3011C29.6328 12.3055 26.8876 10.3623 24.5471 8.71441C26.8618 12.5998 29.015 17.4987 30.2532 24.0306C33.2139 22.7355 36.4438 22.0598 39.9966 22.0598C41.2347 22.0598 42.4729 22.1161 43.7648 22.285C40.4443 19.9585 36.3763 17.079 32.4521 14.3011Z" fill="url(#paint0_linear)"/>
<path fill-rule="evenodd" clip-rule="evenodd" d="M0.484474 1.73203C0.807462 1.33786 1.23811 1.16893 1.66876 1.16893C1.93792 1.16893 2.26091 1.28155 2.58389 1.45048C3.55286 2.1825 16.3647 11.2483 40.8579 28.4227L43.2265 30.112C43.9801 30.6188 44.1955 31.5761 43.7648 32.3644C43.4418 32.9275 42.9035 33.2654 42.3114 33.2654C42.0422 33.2654 41.8269 33.209 41.6116 33.0964C41.6116 33.0964 38.0049 31.4635 33.0524 30.6751C31.5989 30.4499 29.9302 30.281 28.0999 30.281C24.2241 30.281 19.7561 31.013 15.5034 33.4343C15.2342 33.6032 14.9651 33.6595 14.6959 33.6595C14.4268 33.6595 14.1576 33.6032 13.9423 33.4906C13.4578 33.209 13.1348 32.7586 13.0272 32.1955C10.8773 17.9151 4.80987 9.86564 0.397403 4.01172L0.376812 3.98441C-0.107669 3.30869 -0.0538381 2.35143 0.484474 1.73203ZM20.2297 17.5678C14.6134 13.6067 10.1798 10.4798 6.99806 8.20762C10.4433 13.4444 13.8346 20.3142 15.5572 30.0557C19.2716 28.2538 23.4704 27.3529 27.9922 27.3529C29.7687 27.3529 31.5451 27.4655 33.3754 27.747C33.9675 27.8033 34.5058 27.916 35.0441 28.0286C29.4439 24.0665 24.4956 20.5765 20.2297 17.5678Z" fill="url(#paint1_linear)"/>
<defs>
<linearGradient id="paint0_linear" x1="34.774" y1="29.4194" x2="43.4534" y2="12.9412" gradientUnits="userSpaceOnUse">
<stop stop-color="#B94817"/>
<stop offset="1" stop-color="#CF8F18"/>
</linearGradient>
<linearGradient id="paint1_linear" x1="19.6261" y1="34.8609" x2="28.461" y2="17.9585" gradientUnits="userSpaceOnUse">
<stop stop-color="#98B136"/>
<stop offset="0.00577273" stop-color="#98B136"/>
<stop offset="1" stop-color="#74A680"/>
</linearGradient>
</defs>
</svg>
