<svg width="15" height="15" viewBox="0 0 15 15" fill="none" xmlns="http://www.w3.org/2000/svg">
<path fill-rule="evenodd" clip-rule="evenodd" d="M6.1955 9.80483L4.1955 7.80483C3.93483 7.54417 3.93483 7.12283 4.1955 6.86217C4.45617 6.6015 4.8775 6.6015 5.13817 6.86217L6.66683 8.39083L9.52883 5.52883C9.7895 5.26817 10.2108 5.26817 10.4715 5.52883C10.7322 5.7895 10.7322 6.21083 10.4715 6.4715L7.13817 9.80483C7.00817 9.93483 6.8375 10.0002 6.66683 10.0002C6.49617 10.0002 6.3255 9.93483 6.1955 9.80483ZM7.33333 1.33333C4.02533 1.33333 1.33333 4.02533 1.33333 7.33333C1.33333 10.642 4.02533 13.3333 7.33333 13.3333C10.642 13.3333 13.3333 10.642 13.3333 7.33333C13.3333 4.02533 10.642 1.33333 7.33333 1.33333ZM7.33333 14.6667C3.29 14.6667 0 11.3767 0 7.33333C0 3.29 3.29 0 7.33333 0C11.3767 0 14.6667 3.29 14.6667 7.33333C14.6667 11.3767 11.3767 14.6667 7.33333 14.6667Z" fill="#6BB55C"/>
</svg>
