<?xml version="1.0" standalone="no"?>
<!DOCTYPE svg PUBLIC "-//W3C//DTD SVG 20010904//EN"
 "http://www.w3.org/TR/2001/REC-SVG-20010904/DTD/svg10.dtd">
<svg version="1.0" xmlns="http://www.w3.org/2000/svg"
 width="256.000000pt" height="256.000000pt" viewBox="0 0 256.000000 256.000000"
 preserveAspectRatio="xMidYMid meet">

<g transform="translate(0.000000,256.000000) scale(0.100000,-0.100000)"
fill="#000000" stroke="none">
<path d="M339 2537 c-147 -42 -262 -172 -289 -328 -6 -38 -10 -164 -8 -312 l3
-247 407 222 c461 252 420 217 397 343 -23 127 -109 239 -228 298 -54 26 -77
31 -150 34 -49 2 -105 -3 -132 -10z"/>
<path d="M1320 1114 c-189 -102 -346 -187 -348 -188 -2 -2 208 -192 467 -422
297 -265 489 -429 523 -447 151 -79 337 -42 458 90 64 70 92 144 93 243 2 167
-13 187 -455 578 -204 180 -375 328 -382 329 -6 2 -166 -80 -356 -183z"/>
<path d="M450 645 c-217 -118 -399 -216 -403 -217 -14 -5 11 -126 37 -183 73
-160 261 -258 433 -226 171 31 301 160 333 331 12 61 14 510 3 509 -5 0 -186
-97 -403 -214z"/>
</g>
</svg>
