<svg width="104" height="25" viewBox="0 0 104 25" fill="none" xmlns="http://www.w3.org/2000/svg">
<path d="M35.8872 18.4819V1.91169H41.5741C42.5049 1.89473 43.434 1.99938 44.338 2.22302C45.0163 2.38619 45.6556 2.68286 46.2192 3.0959C46.6922 3.45633 47.0633 3.93476 47.2958 4.48378C47.5314 5.06538 47.6476 5.68891 47.6373 6.31683C47.6399 6.69602 47.5823 7.0732 47.4665 7.43412C47.348 7.79886 47.1646 8.13896 46.9253 8.43793C46.6679 8.76494 46.3613 9.04961 46.0166 9.28172C45.6078 9.55288 45.165 9.76814 44.6998 9.92183C46.9668 10.4339 48.0994 11.6647 48.0975 13.6141C48.1039 14.2842 47.9677 14.9479 47.6981 15.5606C47.4339 16.1565 47.038 16.6839 46.5404 17.1027C45.9844 17.5593 45.3455 17.9032 44.6593 18.1153C43.8329 18.3719 42.9714 18.4957 42.1067 18.4819H35.8872ZM38.9521 9.08677H41.386C42.4279 9.08677 43.218 8.8928 43.7563 8.50485C44.2946 8.11691 44.5657 7.51268 44.5695 6.69217C44.5695 5.82899 44.3264 5.21409 43.8402 4.84748C43.354 4.48087 42.5938 4.29756 41.5597 4.29756H38.9376L38.9521 9.08677ZM38.9521 11.2166V16.0756H42.0661C42.5509 16.0892 43.0344 16.0193 43.4958 15.8691C43.8399 15.7559 44.155 15.5681 44.419 15.3191C44.6478 15.097 44.8196 14.8225 44.9197 14.519C45.0242 14.2049 45.0761 13.8755 45.0731 13.5443C45.0789 13.2133 45.0209 12.8843 44.9024 12.5754C44.7884 12.2894 44.6042 12.0371 44.367 11.8422C44.0852 11.6211 43.7595 11.4634 43.4119 11.3795C42.9622 11.2627 42.4987 11.2079 42.0343 11.2166H38.9521Z" fill="#001522"/>
<path d="M55.3993 6.5436C56.0906 6.53605 56.7773 6.65638 57.4252 6.89857C58.0319 7.122 58.5829 7.47545 59.0401 7.93439C59.4997 8.41126 59.8555 8.97902 60.0849 9.60159C60.3473 10.3266 60.4749 11.0939 60.4612 11.8653C60.4636 12.0432 60.454 12.2211 60.4322 12.3977C60.4209 12.514 60.3864 12.6268 60.3309 12.7294C60.285 12.8072 60.2148 12.8676 60.1312 12.9011C60.0285 12.9392 59.9194 12.957 59.81 12.9535H52.5747C52.6557 14.1619 52.9779 15.0484 53.5413 15.6128C53.8372 15.8989 54.1878 16.1214 54.5719 16.267C54.956 16.4126 55.3655 16.4781 55.7756 16.4595C56.1751 16.4682 56.5734 16.4142 56.9564 16.2995C57.2554 16.2064 57.5458 16.0876 57.8246 15.9445C58.0706 15.8136 58.2877 15.6972 58.4758 15.5896C58.6388 15.4887 58.8256 15.4334 59.017 15.4295C59.1174 15.4285 59.2166 15.4514 59.3064 15.4965C59.3923 15.5443 59.4665 15.6109 59.5235 15.6914L60.3425 16.7243C60.0415 17.0831 59.6883 17.3941 59.2948 17.6467C58.9131 17.8849 58.5065 18.08 58.0822 18.2286C57.6643 18.3759 57.2329 18.4812 56.7943 18.5428C56.3734 18.6022 55.9489 18.6324 55.5238 18.633C54.7491 18.6406 53.9797 18.5034 53.2548 18.2286C52.5672 17.965 51.945 17.5539 51.4315 17.024C50.8929 16.4596 50.477 15.7888 50.2102 15.0542C49.9061 14.1865 49.7601 13.2709 49.779 12.3512C49.7729 11.5794 49.9043 10.8128 50.1668 10.0875C50.4112 9.40424 50.789 8.77704 51.2781 8.24281C51.7747 7.71027 52.3759 7.28721 53.0435 7.00041C53.7887 6.68513 54.591 6.52955 55.3993 6.5436ZM55.4572 8.58032C55.1057 8.55968 54.7536 8.61092 54.4223 8.73094C54.091 8.85097 53.7874 9.03728 53.5298 9.27863C53.0292 9.82576 52.7176 10.5207 52.6413 11.2601H57.9317C57.9331 10.9092 57.8824 10.5601 57.7812 10.2242C57.6899 9.91071 57.5352 9.6195 57.3268 9.36882C57.1151 9.11864 56.85 8.91972 56.5512 8.7869C56.2056 8.63867 55.8329 8.5653 55.4572 8.57159V8.58032Z" fill="#001522"/>
<path d="M71.9158 18.4818H70.6511C70.4353 18.4929 70.2199 18.452 70.023 18.3625C69.9371 18.3081 69.8628 18.2371 69.8042 18.1538C69.7456 18.0704 69.7039 17.9762 69.6815 17.8766L69.4297 17.0387C69.1546 17.2906 68.8646 17.5257 68.5615 17.7428C68.2895 17.9408 67.9987 18.1114 67.6933 18.252C67.383 18.3926 67.0577 18.497 66.7238 18.5633C66.348 18.6353 65.966 18.6695 65.5835 18.6651C65.1205 18.6696 64.6597 18.6019 64.2175 18.4644C63.8194 18.3423 63.4515 18.1371 63.138 17.8621C62.8286 17.5911 62.5834 17.2541 62.4202 16.8757C62.2452 16.4336 62.1606 15.9606 62.1713 15.4849C62.1755 15.0233 62.295 14.5701 62.5186 14.1669C62.8011 13.6873 63.1992 13.287 63.6763 13.003C64.3453 12.6009 65.0728 12.3064 65.8324 12.1302C66.9257 11.8724 68.0464 11.7503 69.1693 11.7665V11.074C69.1693 10.2864 69.0033 9.69869 68.6715 9.31075C68.4888 9.11128 68.264 8.95547 68.0136 8.85477C67.7632 8.75407 67.4935 8.71104 67.2244 8.72883C66.8381 8.71801 66.4527 8.7721 66.0842 8.88885C65.8096 8.98256 65.5449 9.10341 65.2941 9.24965C65.0683 9.38349 64.8628 9.50278 64.6718 9.61044C64.48 9.71795 64.2634 9.77312 64.0438 9.77047C63.8692 9.7749 63.6977 9.72289 63.5547 9.62208C63.4199 9.52504 63.3074 9.40001 63.2248 9.25546L62.7125 8.35058C64.0337 7.1214 65.7779 6.45587 67.5775 6.49425C68.2034 6.48363 68.8252 6.59836 69.4066 6.83176C69.9232 7.04226 70.3883 7.3629 70.7697 7.77156C71.1502 8.18558 71.4401 8.67524 71.6206 9.20891C71.8177 9.79952 71.9155 10.419 71.91 11.042L71.9158 18.4818ZM66.443 16.7186C66.7113 16.7207 66.979 16.6944 67.2418 16.64C67.4801 16.5887 67.7114 16.5086 67.9306 16.4015C68.1532 16.291 68.3637 16.1574 68.5586 16.0028C68.7752 15.839 68.9793 15.659 69.1693 15.4646V13.4977C68.48 13.487 67.7913 13.5396 67.1116 13.6548C66.6534 13.7289 66.2068 13.8629 65.7832 14.0534C65.4997 14.1739 65.2538 14.3689 65.0712 14.6179C64.9002 14.8954 64.8296 15.2238 64.8712 15.5476C64.9129 15.8714 65.0642 16.1709 65.2999 16.3956C65.6365 16.624 66.0373 16.7372 66.443 16.7186Z" fill="#001522"/>
<path d="M78.7199 6.52047C79.195 6.51661 79.669 6.56836 80.1322 6.67468C80.5539 6.76926 80.9609 6.92097 81.3419 7.12566H84.7049V8.18185C84.7136 8.33247 84.6638 8.48061 84.566 8.59502C84.4366 8.71172 84.2732 8.78318 84.1 8.79869L83.0524 8.99363C83.1285 9.19881 83.1875 9.41 83.2289 9.62502C83.2702 9.85544 83.2906 10.0892 83.2897 10.3233C83.2976 10.869 83.1787 11.409 82.9424 11.9003C82.7145 12.3641 82.3886 12.7723 81.9873 13.0962C81.5562 13.4383 81.0655 13.6968 80.5403 13.8585C79.9522 14.0434 79.3389 14.1347 78.7228 14.1291C78.2903 14.1294 77.8589 14.0865 77.4349 14.0011C77.0702 14.2261 76.8879 14.4763 76.8879 14.7517C76.8835 14.862 76.912 14.9711 76.9697 15.065C77.0275 15.1588 77.1119 15.2332 77.2121 15.2784C77.4863 15.4053 77.7798 15.485 78.0803 15.5141C78.4787 15.5634 78.8799 15.5867 79.2813 15.5839C79.7299 15.5839 80.1901 15.6043 80.6618 15.6421C81.1249 15.6788 81.5851 15.7458 82.0394 15.8428C82.4611 15.9281 82.8665 16.0804 83.2405 16.2938C83.5909 16.4987 83.8845 16.7889 84.0942 17.1376C84.3258 17.5578 84.4379 18.0339 84.4184 18.5139C84.4161 19.0429 84.285 19.5634 84.0364 20.0298C83.7649 20.5413 83.388 20.9887 82.9308 21.342C82.3979 21.7508 81.7987 22.0639 81.1596 22.2672C80.3854 22.5112 79.5774 22.6291 78.7662 22.6164C77.9866 22.6301 77.2085 22.543 76.4509 22.3574C75.8758 22.22 75.3272 21.988 74.8273 21.6708C74.4331 21.4206 74.103 21.0807 73.8636 20.6786C73.6575 20.3255 73.5477 19.9241 73.5452 19.5148C73.531 19.005 73.71 18.5089 74.0459 18.1269C74.4317 17.7209 74.9093 17.4145 75.438 17.2336C75.1576 17.0809 74.919 16.8611 74.7434 16.5935C74.555 16.2791 74.4633 15.9157 74.48 15.549C74.482 15.3638 74.5133 15.1802 74.5726 15.0049C74.6424 14.8068 74.7398 14.6196 74.862 14.4491C74.9964 14.255 75.156 14.0798 75.3367 13.9283C75.5412 13.7532 75.7668 13.6047 76.0081 13.4861C75.4389 13.1882 74.957 12.7458 74.6102 12.2029C74.2602 11.6399 74.0793 10.9872 74.0893 10.3233C74.0802 9.78933 74.1943 9.26049 74.4228 8.77835C74.6513 8.29621 74.9879 7.87392 75.4061 7.54465C75.8448 7.20094 76.3434 6.94242 76.8763 6.78233C77.4746 6.60369 78.0959 6.51544 78.7199 6.52047ZM81.8079 18.9765C81.8188 18.7633 81.7461 18.5544 81.6053 18.3946C81.4492 18.236 81.2577 18.1173 81.0468 18.0483C80.7779 17.9593 80.5004 17.8988 80.219 17.8679C79.8857 17.8285 79.5504 17.8091 79.2148 17.8097H78.1411C77.7748 17.8098 77.4097 17.7679 77.0529 17.6846C76.7535 17.8461 76.4888 18.0656 76.2744 18.3306C76.0832 18.5649 75.9806 18.8597 75.985 19.1627C75.9844 19.3668 76.0373 19.5675 76.1383 19.7446C76.2586 19.94 76.4284 20.0997 76.6303 20.2072C76.9023 20.3506 77.1955 20.4489 77.4986 20.4982C77.9312 20.5757 78.3702 20.6118 78.8096 20.6059C79.2641 20.6124 79.718 20.5714 80.164 20.4837C80.4936 20.4214 80.8112 20.3064 81.1046 20.1432C81.3284 20.0244 81.5156 19.8463 81.6458 19.6282C81.7616 19.4309 81.8216 19.2056 81.8195 18.9765H81.8079ZM78.7199 12.3193C79.0299 12.3255 79.3386 12.2762 79.6315 12.1738C79.8721 12.0894 80.0921 11.9545 80.2769 11.7781C80.4491 11.6077 80.5815 11.401 80.6647 11.1729C80.7536 10.9228 80.7977 10.6588 80.795 10.3932C80.8079 10.1416 80.7697 9.89011 80.6826 9.65396C80.5955 9.41782 80.4614 9.20203 80.2885 9.01982C79.8362 8.68869 79.291 8.5103 78.7315 8.5103C78.1719 8.5103 77.6268 8.68869 77.1744 9.01982C76.9983 9.20208 76.8614 9.41886 76.7723 9.65664C76.6832 9.89441 76.6437 10.1481 76.6564 10.4019C76.6539 10.6639 76.699 10.9242 76.7895 11.17C76.872 11.3995 77.0033 11.608 77.1744 11.781C77.3599 11.9609 77.5821 12.0979 77.8256 12.1826C78.1137 12.2794 78.4162 12.3257 78.7199 12.3193Z" fill="#001522"/>
<path d="M89.48 1.45483V18.4818H86.6641V1.45483H89.48Z" fill="#001522"/>
<path d="M97.4939 6.54375C98.1851 6.53666 98.8718 6.65697 99.5198 6.89872C100.121 7.12443 100.667 7.47772 101.12 7.93454C101.586 8.40874 101.946 8.97703 102.177 9.60174C102.439 10.3267 102.567 11.094 102.553 11.8654C102.555 12.0434 102.546 12.2213 102.524 12.3979C102.514 12.5145 102.48 12.6276 102.423 12.7296C102.378 12.8081 102.307 12.8687 102.223 12.9012C102.121 12.9392 102.013 12.9569 101.905 12.9536H94.6693C94.7542 14.1621 95.0774 15.0485 95.6388 15.613C95.9339 15.8992 96.284 16.1219 96.6677 16.2675C97.0514 16.4131 97.4605 16.4785 97.8702 16.4597C98.2697 16.4683 98.668 16.4143 99.051 16.2997C99.35 16.2065 99.6404 16.0877 99.9192 15.9447C100.168 15.8137 100.382 15.6974 100.57 15.5897C100.733 15.4888 100.92 15.4336 101.112 15.4297C101.212 15.4286 101.311 15.4516 101.401 15.4966C101.487 15.5444 101.561 15.6111 101.618 15.6915L102.452 16.7303C102.149 17.0886 101.795 17.3995 101.401 17.6526C101.02 17.8914 100.613 18.0866 100.188 18.2345C99.7705 18.3819 99.3391 18.4872 98.9005 18.5488C98.4796 18.6083 98.055 18.6384 97.63 18.639C96.8553 18.6463 96.086 18.5092 95.361 18.2345C94.6734 17.971 94.0512 17.5599 93.5377 17.03C93.0018 16.4702 92.5878 15.8043 92.3222 15.0747C92.0093 14.2019 91.8583 13.2789 91.8765 12.3513C91.8718 11.5797 92.0031 10.8133 92.2643 10.0876C92.5087 9.40439 92.8865 8.77719 93.3756 8.24295C93.8722 7.71042 94.4734 7.28735 95.141 7.00055C95.8854 6.68609 96.6866 6.53053 97.4939 6.54375ZM97.5489 8.58047C97.1979 8.56023 96.8464 8.61166 96.5156 8.73168C96.1848 8.85169 95.8817 9.0378 95.6244 9.27877C95.1217 9.82482 94.8089 10.5201 94.733 11.2602H100.023C100.026 10.9095 99.976 10.5604 99.8758 10.2244C99.7823 9.91119 99.6267 9.62022 99.4185 9.36897C99.2068 9.11879 98.9417 8.91987 98.6429 8.78705C98.2975 8.63823 97.9246 8.56484 97.5489 8.57174V8.58047Z" fill="#001522"/>
<path d="M14.6327 5.70274L24.9676 12.7294C24.2956 12.6434 23.619 12.5997 22.9417 12.5985C21.1454 12.5781 19.3639 12.9266 17.7062 13.6227C17.1778 10.8143 16.1357 8.12885 14.6327 5.70274ZM11.4491 1.82715C11.3055 1.82778 11.1648 1.86898 11.0433 1.94606C10.9218 2.02314 10.8242 2.133 10.7618 2.26311C10.6993 2.39322 10.6745 2.53836 10.6901 2.68197C10.7057 2.82558 10.7611 2.96189 10.8501 3.07537C12.7833 5.5369 15.4286 8.90913 16.3489 14.8884C16.3761 15.0706 16.4677 15.2368 16.607 15.3565C16.7463 15.4763 16.9239 15.5415 17.1071 15.5401C17.2341 15.5393 17.359 15.5084 17.4718 15.4499C19.1539 14.5653 21.0291 14.1173 22.9272 14.1464C23.6478 14.1475 24.3675 14.201 25.0804 14.3064C26.3583 14.4893 27.6091 14.8284 28.8052 15.3161C28.9052 15.3616 29.0137 15.3854 29.1235 15.3859C29.2905 15.389 29.4538 15.3373 29.5889 15.2385C29.7239 15.1398 29.8232 14.9994 29.8716 14.8388C29.9201 14.6781 29.9151 14.506 29.8574 14.3485C29.7997 14.1909 29.6924 14.0567 29.5518 13.966L29.2074 13.7333C24.2035 10.3407 12.4939 2.38288 11.8804 1.96099C11.7523 1.87367 11.601 1.82705 11.4463 1.82715H11.4491Z" fill="url(#paint0_linear)"/>
<path d="M5.20938 5.4583L20.2819 15.7118C19.9925 15.6565 19.7031 15.607 19.3876 15.5605C18.4294 15.4186 17.4621 15.3466 16.4935 15.3451C14.1918 15.3163 11.9114 15.7919 9.81102 16.7388C9.10877 12.6877 7.5386 8.83861 5.20938 5.4583ZM2.32974 1.81839C2.16159 1.81257 1.99539 1.85599 1.85133 1.94338C1.70728 2.03076 1.59158 2.15834 1.51831 2.3106C1.44503 2.46286 1.41734 2.63325 1.4386 2.80104C1.45986 2.96883 1.52915 3.1268 1.63805 3.25573C4.02569 6.29918 7.29893 10.4745 8.44211 17.8619C8.475 18.0702 8.58031 18.2599 8.7393 18.3974C8.89829 18.5348 9.10065 18.6111 9.31034 18.6126C9.45785 18.6122 9.60298 18.5752 9.73288 18.505C11.8185 17.409 14.1434 16.854 16.4964 16.8901C17.3894 16.8923 18.2811 16.9585 19.1648 17.088C20.746 17.3125 22.2942 17.7297 23.7751 18.3304C23.8894 18.3838 24.0138 18.4116 24.1398 18.4119C24.3278 18.4097 24.5103 18.3474 24.6607 18.2339C24.8112 18.1205 24.9218 17.9619 24.9766 17.7811C25.0315 17.6002 25.0276 17.4065 24.9656 17.228C24.9036 17.0495 24.7867 16.8955 24.6318 16.7883L23.3468 15.9154L2.82753 1.9726C2.6808 1.87202 2.50732 1.81828 2.32974 1.81839Z" fill="url(#paint1_linear)"/>
<defs>
<linearGradient id="paint0_linear" x1="15.0726" y1="13.8467" x2="22.3058" y2="6.65206" gradientUnits="userSpaceOnUse">
<stop stop-color="#D6480D"/>
<stop offset="1" stop-color="#E59200"/>
</linearGradient>
<linearGradient id="paint1_linear" x1="6.78089" y1="16.605" x2="14.1973" y2="9.23092" gradientUnits="userSpaceOnUse">
<stop stop-color="#90B424"/>
<stop offset="0.01" stop-color="#90B424"/>
<stop offset="1" stop-color="#56A980"/>
</linearGradient>
</defs>
</svg>
