<svg width="21" height="20" viewBox="0 0 21 20" fill="none" xmlns="http://www.w3.org/2000/svg">
<path fill-rule="evenodd" clip-rule="evenodd" d="M11.5494 17.7487L11.146 16.6022C10.8488 17.0906 10.5091 17.5364 10.1482 17.961C10.1376 17.9822 10.1216 17.9982 10.1057 18.0141C10.0898 18.03 10.0739 18.0459 10.0633 18.0672C9.98895 18.0672 9.91465 18.0725 9.84034 18.0778L9.84026 18.0778C9.76598 18.0831 9.6917 18.0884 9.61742 18.0884H9.17158C9.16096 18.0672 9.14504 18.0512 9.12912 18.0353C9.1132 18.0194 9.09727 18.0035 9.08666 17.9822C8.21621 16.9844 7.49437 15.7743 7.00607 14.4155C7.85529 14.2457 8.72574 14.1607 9.63865 14.1607C9.87218 14.1607 10.1057 14.1607 10.3393 14.182L9.93588 12.9931H9.65988C8.61959 12.9931 7.62175 13.0992 6.66638 13.2903C6.41161 12.3349 6.24177 11.3159 6.19931 10.2331H8.9805L8.78943 9.6811C8.72574 9.49003 8.68328 9.27773 8.68328 9.06542H6.15685C6.19931 8.00389 6.34792 6.98483 6.62392 6.00823C7.57929 6.1993 8.57712 6.30545 9.61742 6.30545C10.6365 6.30545 11.6555 6.1993 12.6109 6.00823C12.802 6.6876 12.9294 7.40944 13.0143 8.15251L14.2244 8.57712C14.1607 7.60052 13.9909 6.64514 13.7574 5.73223C14.6703 5.47746 15.5407 5.11655 16.3475 4.69194C16.3581 4.68132 16.374 4.67601 16.3899 4.67071C16.4059 4.6654 16.4218 4.66009 16.4324 4.64948C17.3453 5.90207 17.9398 7.40944 18.0459 9.06542H15.6469L19.065 10.2543C19.0862 10.2649 19.1128 10.2756 19.1393 10.2862C19.1658 10.2968 19.1924 10.3074 19.2136 10.318C19.2348 10.1057 19.2348 9.87222 19.2348 9.63871V9.63864C19.2348 4.33102 14.925 0.021225 9.61742 0.021225C4.33102 0.021225 0 4.33102 0 9.63864C0 14.925 4.30979 19.2348 9.61742 19.2348C10.6365 19.2348 11.6343 19.065 12.5472 18.7678C12.1014 18.5979 11.7192 18.2158 11.5494 17.7487ZM15.6257 3.73656C15.6044 3.75779 15.562 3.77902 15.5407 3.77902C14.8614 4.11871 14.1395 4.39471 13.3752 4.60701C12.9718 3.50303 12.4623 2.50519 11.8254 1.61351C11.8148 1.59228 11.7989 1.57105 11.7829 1.54982L11.7829 1.54981C11.767 1.52858 11.7511 1.50736 11.7405 1.48613C13.2478 1.86828 14.5641 2.67504 15.6257 3.73656ZM9.3945 1.22075C9.32019 1.22606 9.24588 1.23136 9.17158 1.23136C9.15035 1.24198 9.13443 1.2579 9.11585 1.27648C9.09727 1.29506 9.07604 1.31629 9.0442 1.33752C8.17374 2.33535 7.47314 3.54549 6.96361 4.90424C7.81283 5.07409 8.68328 5.15901 9.59619 5.15901C10.5091 5.15901 11.3796 5.07409 12.2288 4.90424C11.7405 3.54549 11.0186 2.33535 10.1482 1.33752C10.127 1.29506 10.0845 1.25259 10.0633 1.23136C9.91465 1.21013 9.76603 1.21013 9.61742 1.21013C9.54311 1.21013 9.46881 1.21544 9.3945 1.22075ZM7.47314 1.48613C7.46252 1.50736 7.4466 1.52859 7.43068 1.54982L7.43067 1.54983C7.41475 1.57106 7.39883 1.59228 7.38822 1.61351C6.7513 2.50519 6.24177 3.52426 5.83839 4.62824C5.07409 4.41594 4.35225 4.13994 3.67288 3.80025C3.66226 3.78964 3.64634 3.78433 3.63042 3.77902C3.61449 3.77372 3.59857 3.76841 3.58796 3.75779C4.64948 2.67504 5.987 1.86828 7.47314 1.48613ZM2.86612 4.67071C2.8502 4.6654 2.83427 4.66009 2.82366 4.64948C1.91075 5.90207 1.31629 7.40944 1.21014 9.06542H5.0104C5.03163 7.89774 5.2227 6.79376 5.4987 5.73223C4.58579 5.45623 3.71534 5.11655 2.90858 4.69194C2.89796 4.68132 2.88204 4.67601 2.86612 4.67071ZM2.82366 14.6278C1.91075 13.3752 1.31629 11.8678 1.21014 10.2331H5.0104C5.05286 11.3795 5.2227 12.5048 5.4987 13.5663C4.58579 13.8211 3.71534 14.182 2.90858 14.6066C2.86612 14.5854 2.84489 14.6066 2.82366 14.6278ZM3.63042 15.5195C3.61449 15.5248 3.59857 15.5301 3.58796 15.5407C4.64948 16.6022 5.987 17.3878 7.47314 17.8124C7.46252 17.7912 7.4466 17.7699 7.43068 17.7487C7.41475 17.7275 7.39883 17.7062 7.38822 17.685C6.7513 16.7721 6.24177 15.7743 5.83839 14.6703C5.07409 14.8826 4.35225 15.1586 3.67288 15.4983C3.66226 15.5089 3.64634 15.5142 3.63042 15.5195Z" fill="#1D4771"/>
<path d="M20.6785 17.1967L16.7297 13.2478L18.6616 12.2712C18.9801 12.1014 18.9589 11.6343 18.6192 11.5069L10.5516 8.7045C10.2331 8.59835 9.91467 8.89558 10.0208 9.23527L12.8232 17.3029C12.9506 17.6425 13.4177 17.685 13.5875 17.3453L14.5642 15.4133L18.513 19.3622C18.6829 19.5321 18.9376 19.5321 19.0862 19.3622L20.6785 17.7699C20.8484 17.6213 20.8484 17.3665 20.6785 17.1967Z" fill="#1D4771"/>
</svg>
